<svg xmlns="http://www.w3.org/2000/svg" viewBox="0 0 10535.35 1284.91">
<g data-name="Layer 1">
<path fill="#737373" d="M2475.32,1030.37c18.29,0,32,6.09,45.72,18.29q18.3,18.28,18.3,45.72c0,18.29-6.1,32-18.3,44.21q-178.32,141.75-402.39,141.75-265.22,0-452.69-187.48T1478.48,640.17q0-265.21,187.48-452.69T2118.65,0q228.63,0,407,146.32,18.28,18.3,18.29,45.73c0,18.29-6.1,32-18.29,45.73q-18.3,18.28-45.73,18.29c-18.29,0-32-6.1-45.73-19.82C2344.24,163.09,2239.07,128,2118.65,128c-141.75,0-262.16,50.3-361.23,149.38C1656.82,378,1608,498.42,1608,638.64c0,141.76,50.3,262.17,149.38,361.24,100.59,100.6,221,149.38,361.23,149.38,121.94,0,228.63-36.59,320.09-111.27A92,92,0,0,1,2475.32,1030.37Z"></path>
<path fill="#737373" d="M2944.78,833.74l-158.52,408.49c-3.05,7.62-7.62,13.72-13.72,21.34q-18.28,18.29-45.73,18.29c-18.29,0-32-6.1-45.72-18.29q-18.3-18.28-18.29-45.73c0-10.66,1.52-19.81,6.09-27.43L3114,47.25c3.05-9.14,9.15-18.29,16.77-25.91a61.06,61.06,0,0,1,44.2-18.29q25.16,0,45.73,18.29c7.62,7.62,12.19,16.77,15.24,25.91L3681,1190.41c3.05,7.62,6.1,16.77,6.1,27.43,0,18.3-6.1,32-18.29,45.73q-18.3,18.29-45.73,18.29c-18.29,0-32-6.1-44.2-18.29a64,64,0,0,1-13.72-21.34L3406.61,833.74Zm410-128L3174.93,242.35,2995.07,705.71Z"></path>
<path fill="#737373" d="M3877.59,3.05h320.09c106.69,0,196.62,38.1,271.31,112.79s112.79,164.61,112.79,271.31-36.58,196.62-111.27,271.31c-35.06,35.06-71.64,61-112.79,79.26l277.41,446.59c7.62,10.67,10.66,21.34,10.66,35.06,0,18.29-6.09,32-18.29,45.73q-18.28,18.29-45.72,18.29c-22.87,0-41.16-10.67-56.4-32L4225.11,771.25c-9.14,0-18.29,1.52-27.43,1.52H3941.61v448.12c0,18.29-6.1,32-18.29,45.73q-18.29,18.29-45.73,18.29c-18.29,0-32-6.1-45.72-18.29q-18.3-18.28-18.29-45.73V67.07c0-18.3,6.09-32,18.29-45.73C3845.58,9.15,3859.3,3.05,3877.59,3.05Zm64,128V643.22h256.07c70.11,0,131.08-24.39,181.38-74.69s74.68-109.74,74.68-181.38c0-70.11-24.38-131.08-74.68-181.38s-109.75-74.69-181.38-74.69Z"></path>
<path fill="#6699FF" d="M4911,530.43c-56.4-67.07-82.31-144.8-74.69-233.21s44.2-160,111.27-218C5007,27.44,5077.15,1.52,5154.88,1.52q139.47,0,242.35,114.32c12.19,13.72,21.34,29,30.48,42.68,6.1,10.67,9.15,21.34,9.15,35,0,18.3-6.1,32-18.29,45.73q-18.28,18.29-45.73,18.29c-19.81,0-35.05-6.1-44.2-19.81-9.14-12.2-19.81-25.91-29-39.63-35.06-41.16-77.73-62.5-129.56-67.07-53.34-4.57-99.07,10.67-140.22,45.73s-62.5,77.73-67.07,129.56c-4.57,53.34,10.67,99.07,45.73,140.22,29,27.44,74.68,48.78,137.18,65.54,111.26,24.39,196.62,70.12,254.54,135.66,59.44,71.64,89.93,152.42,89.93,242.35,0,12.19,0,24.39-1.53,36.58-9.14,105.17-53.34,192-134.13,260.64-71.64,61-153.94,91.45-245.4,91.45-114.31,0-213.38-45.72-295.69-135.65a391.37,391.37,0,0,1-30.49-39.63c-9.14-10.67-12.19-24.39-12.19-38.11,0-18.29,6.1-32,18.29-45.72q18.29-18.3,45.73-18.29c22.86,0,41.15,9.14,54.87,29,6.1,10.67,13.72,19.81,22.86,29,45.73,54.87,103.65,83.83,173.76,89.93,70.12,4.57,132.61-15.25,186-61s83.83-103.65,89.92-173.76-13.71-132.61-59.44-187.48c-39.63-44.2-100.6-77.74-184.43-99.07C5039,617.31,4968.93,583.77,4911,530.43Z"></path>
<path fill="#6699FF" d="M6278.22,21.34a61.08,61.08,0,0,1,44.21-18.29q25.14,0,45.72,18.29a59.56,59.56,0,0,1,15.24,24.39l259.12,932.81L6901.63,45.73c3.05-9.15,9.14-16.77,15.24-24.39a61,61,0,0,1,44.2-18.29c18.29,0,32,6.1,45.73,18.29q18.28,18.29,18.29,45.73a86.51,86.51,0,0,1-4.57,27.43l-312.47,1134a99.68,99.68,0,0,1-19.81,35.06c-12.2,12.19-27.44,19.82-45.73,19.82s-32-6.1-44.2-19.82c-9.15-9.14-16.77-21.34-19.82-33.53L6322.43,307.89l-254.55,920.62a99.68,99.68,0,0,1-19.81,35.06c-12.19,12.19-27.44,19.82-45.73,19.82s-32-6.1-44.2-19.82c-9.14-9.14-16.77-21.34-19.81-33.53L5624.34,94.5a86.23,86.23,0,0,1-4.57-27.43c0-18.3,6.09-32,18.29-45.73q18.28-18.28,45.72-18.29c18.29,0,32,6.1,45.73,18.29a59.66,59.66,0,0,1,15.24,24.39l259.12,932.81L6263,45.73C6264.51,36.58,6269.08,29,6278.22,21.34Z"></path>
<path fill="#6699FF" d="M7218.66,67.07c0-18.3,6.1-32,18.29-45.73q18.3-18.28,45.73-18.29c18.29,0,32,6.1,45.73,18.29q18.29,18.29,18.29,45.73V1217.84c0,18.29-6.1,32-18.29,45.73q-18.3,18.29-45.73,18.29c-18.29,0-32-6.1-45.73-18.29q-18.28-18.28-18.29-45.73Z"></path>
<path fill="#6699FF" d="M7601.24,131.08c-18.29,0-32-6.09-45.73-18.29q-18.29-18.29-18.29-45.72c0-18.3,6.1-32,18.29-45.73q18.3-18.28,45.73-18.29h830.69c18.29,0,32,6.1,45.73,18.29q18.28,18.29,18.29,45.73c0,18.29-6.1,32-18.29,45.72q-18.28,18.3-45.73,18.29H8079.84V1217.84c0,18.3-6.1,32-18.29,45.73q-18.29,18.29-45.73,18.29c-18.29,0-32-6.1-45.72-18.29q-18.3-18.28-18.29-45.73V131.08Z"></path>
<path fill="#6699FF" d="M9453.16,1030.37c18.29,0,32,6.09,45.72,18.29q18.3,18.28,18.29,45.72c0,18.29-6.09,32-18.29,44.21q-178.33,141.75-402.39,141.75-265.21,0-452.69-187.48T8456.32,640.17q0-265.21,187.48-452.69T9096.49,0q228.63,0,407,146.32,18.3,18.3,18.29,45.73c0,18.29-6.09,32-18.29,45.73q-18.28,18.28-45.72,18.29c-18.29,0-33.53-6.1-45.73-19.82C9322.07,163.09,9216.9,128,9096.49,128c-141.75,0-262.16,50.3-361.24,149.38s-149.37,221-149.37,361.23c0,141.76,50.3,262.17,149.37,361.24s221,149.38,361.24,149.38c121.94,0,228.63-36.59,320.08-111.27A92,92,0,0,1,9453.16,1030.37Z"></path>
<path fill="#6699FF" d="M9640.63,67.07c0-18.3,6.1-32,18.29-45.73q18.3-18.28,45.73-18.29c18.29,0,32,6.1,45.73,18.29q18.29,18.29,18.29,45.73V579.2h638.64V67.07c0-18.3,6.1-32,18.29-45.73q18.3-18.28,45.73-18.29c18.29,0,32,6.1,45.73,18.29q18.29,18.29,18.29,45.73V1217.84c0,18.29-6.1,32-18.29,45.73q-18.3,18.29-45.73,18.29c-18.29,0-32-6.1-45.73-18.29q-18.29-18.28-18.29-45.73V705.71H9768.67v512.13c0,18.29-6.1,32-18.29,45.73q-18.3,18.29-45.73,18.29c-18.29,0-32-6.1-45.73-18.29q-18.29-18.28-18.29-45.73Z"></path>
<path fill="#6699FF" d="M1013.6,0H300.27C135.65,0,0,132.61,0,292.65,0,454.21,134.13,585.3,300.27,585.3h714.85c164.62,0,300.27-132.61,300.27-292.65C1313.87,132.61,1178.21,0,1013.6,0Z"></path>
<path fill="white" d="M786.49,294.17C786.49,167.66,890.14,64,1016.65,64S1246.8,167.66,1246.8,294.17s-103.64,230.16-230.15,230.16S786.49,420.68,786.49,294.17Z"></path>
<path fill="#ffa834" d="M1013.6,695H300.27C135.65,695,0,827.65,0,987.69c0,161.57,134.13,292.65,300.27,292.65h714.85c164.62,0,300.27-132.61,300.27-292.65C1313.87,827.65,1178.21,695,1013.6,695Z"></path>
<path fill="white" d="M70.11,989.21c0-126.51,103.65-230.15,230.16-230.15S530.43,862.7,530.43,989.21s-103.65,230.16-230.16,230.16S70.11,1115.72,70.11,989.21Z"></path>
</g>
</svg>