<svg width="406" height="80" viewBox="0 0 406 80" fill="none" xmlns="http://www.w3.org/2000/svg">
<path d="M338.207 30.3143V60.6289H346.689H355.171V30.3143V-0.000312805H346.689H338.207V30.3143Z" fill="#484456"/>
<path d="M382.08 10.6209C376.519 11.0634 371.902 12.5386 367.934 15.1496C366.517 16.079 363.892 18.218 363.774 18.5277C363.729 18.6605 372.197 32.35 372.669 32.8811C372.698 32.9106 373.333 32.3795 374.085 31.7157C377.212 28.9276 379.366 28.1163 383.644 28.1016C386.049 28.1016 386.978 28.3081 387.848 29.0752C388.851 29.9603 388.866 30.093 388.925 36.6132L388.984 42.4844H376.504H364.024V51.5567V60.6289H384.972H405.919V43.8415C405.919 25.8888 405.904 25.7118 405.167 23.0122C404.754 21.5076 403.574 19.0588 402.688 17.8639C399.959 14.176 395.18 11.6387 389.5 10.8421C387.509 10.5619 384.116 10.4586 382.08 10.6209Z" fill="#484456"/>
<path d="M274.362 11.978C271.721 12.3025 268.859 13.2909 266.72 14.6186C265.216 15.5479 263.003 17.6426 262.103 18.9998C261.218 20.3127 260.244 22.4222 259.802 23.9711C259.005 26.7296 258.961 27.423 258.887 35.2118L258.814 42.4844H251.703C246.009 42.4844 244.401 42.4401 243.575 42.2631C241.023 41.7173 239.577 40.3749 238.825 37.8081C238.604 37.0558 238.574 35.8757 238.515 28.0573L238.471 19.1768H230.063H221.669V28.7359C221.669 36.274 221.713 38.6785 221.89 40.1979C223.144 51.1141 229.266 57.8408 239.843 59.9503C243.059 60.5994 244.091 60.6289 260.333 60.6289H275.807L275.837 46.9394C275.881 31.4502 275.793 32.5713 277.106 31.4207C277.976 30.6536 279.274 30.2258 281.162 30.1373L282.593 30.0488V37.9704V45.8773H291.075H299.558V28.8391V11.801L287.506 11.8157C280.867 11.8305 274.952 11.9043 274.362 11.978Z" fill="#484456"/>
<path d="M310.445 36.6902L310.401 61.5909L310.047 62.3728C309.147 64.379 306.949 65.2051 302.568 65.2051H300.296V72.6104V80.001L303.586 79.9125C307.288 79.8092 308.896 79.6469 311.434 79.1454C320.019 77.4194 325.02 72.6399 326.702 64.5855C327.351 61.4434 327.336 61.886 327.395 36.3214L327.454 11.8042H318.972H310.475L310.445 36.6902Z" fill="#484456"/>
<path d="M243.647 72.5793V79.9551H259.8H275.953V72.5793V65.2034H259.8H243.647V72.5793Z" fill="#484456"/>
<path d="M0 39.3787V69.708L14.3533 69.649C27.1135 69.6047 28.8542 69.5752 30.1671 69.354C33.7517 68.7344 36.5841 67.8493 39.5049 66.4479C45.4203 63.6008 49.9785 59.0868 52.8256 53.2304C55.9087 46.902 56.7495 38.6263 55.0089 31.5603C54.1533 28.0789 52.3683 24.0812 50.4949 21.4554C49.359 19.877 46.8955 17.2512 45.3613 15.9973C41.9389 13.1945 37.1594 10.9228 32.6749 9.94914C28.9132 9.15256 29.282 9.16731 14.1321 9.1083L0 9.04929V39.3787ZM26.8627 24.6418C30.5654 25.2761 33.7075 27.0758 35.7432 29.7458C38.015 32.7109 39.0918 36.8856 38.6788 41.0456C38.015 47.6986 34.1795 52.3453 28.0576 53.9238C26.4939 54.3221 24.1337 54.4991 20.1802 54.4991H16.8169V39.4524V24.4057H21.1391C24.4435 24.4057 25.8006 24.4648 26.8627 24.6418Z" fill="#484456"/>
<path d="M75.3946 9.38672C75.3208 9.57849 69.9955 23.1057 63.5785 39.4506C57.1468 55.7954 51.851 69.2931 51.8215 69.4406C51.7477 69.6767 52.2198 69.6914 60.702 69.6619L69.6709 69.6176L77.0468 50.8536C81.1035 40.5274 84.4668 32.1042 84.5258 32.1485C84.5701 32.178 87.9335 40.6454 91.9902 50.9421L99.3512 69.6914H108.291H117.245L115.224 64.5578C114.118 61.7403 108.763 48.1098 103.334 34.258L93.4506 9.07694L84.4816 9.06219H75.5273L75.3946 9.38672Z" fill="#484456"/>
<path d="M120.521 39.3768V69.6914H128.855H137.19V60.3979V51.1043L140.214 51.1339L143.253 51.1781L148.15 60.4274L153.048 69.6914H162.386H171.738L171.369 69.0571C171.178 68.7178 168.463 63.7612 165.365 58.0524C160.571 49.2899 159.745 47.6525 159.937 47.5492C160.778 47.0772 162.813 45.425 163.846 44.3776C166.501 41.6781 168.286 38.1524 169.009 34.2285C169.348 32.355 169.348 28.5196 168.994 26.5429C167.534 18.3557 161.81 12.1453 153.756 10.0063C150.511 9.13595 151.16 9.16545 135.243 9.10644L120.521 9.04744V39.3768ZM147.044 24.1826C149.876 24.8464 151.661 26.7199 152.089 29.4785C152.414 31.5142 151.823 33.5056 150.481 34.9218C149.566 35.8954 148.622 36.4117 147.132 36.7953C146.129 37.0608 145.495 37.0903 141.586 37.0903H137.19V30.5258V23.9613H141.66C145.082 23.9613 146.336 24.0203 147.044 24.1826Z" fill="#484456"/>
<path d="M176.429 39.3768V69.6914H184.911H193.394V39.3768V9.06219H184.911H176.429V39.3768Z" fill="#484456"/>
<path d="M63.5426 39.4562C69.9596 23.1114 75.2849 9.58412 75.3587 9.39235L75.4915 9.06781H84.4457L93.4147 9.08257L84.4899 32.1541C84.4309 32.1099 81.0676 40.533 77.0109 50.8592L69.6351 69.6233L60.6661 69.6675C52.1839 69.697 51.7118 69.6823 51.7856 69.4463C51.8151 69.2987 57.1109 55.801 63.5426 39.4562Z" fill="#D2374F"/>
</svg>
