<svg width="90" height="90" viewBox="0 0 90 90" fill="none" xmlns="http://www.w3.org/2000/svg">
<path d="M82.2093 31.8664V31.6414C82.2239 31.5247 82.2239 31.4066 82.2093 31.2899C82.2162 31.2197 82.2162 31.1491 82.2093 31.0789C82.188 30.9373 82.1454 30.7998 82.0827 30.6711C82.0827 30.6711 82.0827 30.5867 82.0827 30.5446L74.5312 15.0055C74.3609 14.6506 74.0935 14.3512 73.76 14.1421C73.4264 13.933 73.0404 13.8228 72.6468 13.8242H17.4093C17.0157 13.8228 16.6297 13.933 16.2961 14.1421C15.9625 14.3512 15.6951 14.6506 15.5249 15.0055L7.94521 30.4742C7.94521 30.4742 7.94521 30.5586 7.94521 30.6008C7.88251 30.7295 7.83983 30.867 7.81865 31.0086C7.81169 31.0788 7.81169 31.1494 7.81865 31.2196C7.80394 31.3363 7.80394 31.4544 7.81865 31.5711V31.7961C7.83838 31.9013 7.86659 32.0048 7.90302 32.1055C7.90302 32.1899 7.97334 32.2602 8.00146 32.3305C8.02386 32.3894 8.05213 32.446 8.08584 32.4992L8.18427 32.6117C8.17925 32.649 8.17925 32.6868 8.18427 32.7242L43.3405 75.3477L43.4249 75.4461C43.4792 75.505 43.5406 75.5569 43.6077 75.6008C43.6308 75.6067 43.655 75.6067 43.678 75.6008L43.8187 75.6852H43.889L44.1421 75.7696H44.2827H44.353C44.4466 75.7774 44.5406 75.7774 44.6343 75.7696H44.9999C45.0934 75.7774 45.1875 75.7774 45.2812 75.7696H45.3515H45.4921L45.7452 75.6852L45.8859 75.6008C45.9089 75.6067 45.9331 75.6067 45.9562 75.6008C46.0232 75.5569 46.0847 75.505 46.139 75.4461L46.2234 75.3477L81.3796 32.7242L81.7187 32.5063L81.8172 32.3938C81.8509 32.3405 81.8792 32.2839 81.9016 32.225C81.9016 32.1547 81.9719 32.0844 82 32C82.1938 31.9485 82.0396 31.9735 82.2093 31.8664ZM78.7812 29.3352H67.1749L62.4499 17.0852H73.2687L78.7812 29.3352ZM26.4093 29.3352L31.1202 17.0852H58.8796L63.5905 29.3352H26.4093ZM63.5905 32.1055L44.9999 69.3852L26.4093 32.1055H63.5905ZM16.7312 17.0852H28.5499L23.8249 29.3352H11.2186L16.7312 17.0852ZM23.1218 32.1055L42 69L11.2186 32.1055H23.1218ZM48 69L66.5 32.1055L78.7812 31.7961L48 69Z" fill="#FFFFFA"/>
</svg>
