<svg width="16" height="126" viewBox="0 0 16 126" fill="none" xmlns="http://www.w3.org/2000/svg">
<path d="M9 1C9 0.447715 8.55228 2.41411e-08 8 0C7.44772 -2.41411e-08 7 0.447715 7 1L9 1ZM7.29289 125.707C7.68341 126.098 8.31658 126.098 8.7071 125.707L15.0711 119.343C15.4616 118.953 15.4616 118.319 15.0711 117.929C14.6805 117.538 14.0474 117.538 13.6568 117.929L7.99999 123.586L2.34314 117.929C1.95262 117.538 1.31945 117.538 0.928927 117.929C0.538403 118.319 0.538403 118.953 0.928927 119.343L7.29289 125.707ZM7 1L6.99999 125L8.99999 125L9 1L7 1Z" fill="#8BC540"/>
</svg>
