<svg width="91" height="91" viewBox="0 0 91 91" fill="none" xmlns="http://www.w3.org/2000/svg">
<path d="M80.6381 24.7909L76.5409 14.4083C76.5057 14.1849 76.4146 13.974 76.2761 13.7953C76.1376 13.6165 75.9561 13.4757 75.7486 13.3858C75.5411 13.296 75.3142 13.26 75.089 13.2814C74.8639 13.3027 74.6478 13.3806 74.4608 13.5078L63.4389 17.578C63.1389 17.7227 62.9029 17.9733 62.7764 18.2814C62.6499 18.5895 62.6416 18.9335 62.7533 19.2474C62.865 19.5612 63.0887 19.8227 63.3815 19.9816C63.6742 20.1405 64.0154 20.1857 64.3394 20.1083L72.5698 17.0467L58.8284 47.2759L51.8136 35.3355C51.6892 35.1237 51.5093 34.9498 51.2933 34.8326C51.0773 34.7154 50.8334 34.6593 50.5879 34.6704C50.3425 34.6815 50.1047 34.7594 49.9002 34.8956C49.6956 35.0319 49.5322 35.2213 49.4274 35.4436L39.3329 56.9832L31.2106 41.4228C31.1004 41.1927 30.9242 41.0005 30.7046 40.8706C30.485 40.7408 30.2317 40.6791 29.9769 40.6934C29.7358 40.7002 29.5009 40.7714 29.2966 40.8997C29.0924 41.0279 28.9262 41.2086 28.8153 41.4228L16.2085 68.9866V14.8585C16.2085 14.5003 16.0662 14.1567 15.8129 13.9034C15.5596 13.6501 15.216 13.5078 14.8578 13.5078C14.4996 13.5078 14.156 13.6501 13.9027 13.9034C13.6494 14.1567 13.5071 14.5003 13.5071 14.8585V75.1909C13.5071 75.1909 13.5071 75.254 13.5071 75.281C13.5042 75.332 13.5042 75.3831 13.5071 75.4341C13.5071 75.4341 13.5071 75.5151 13.5071 75.5601C13.5071 75.6052 13.5071 75.6412 13.5071 75.6862L13.5701 75.8123L13.6331 75.9203L13.7142 76.0284L13.7952 76.1274L13.8943 76.2175L13.9933 76.2985L14.1284 76.3796L14.2094 76.4246L14.4166 76.4966H14.4706H14.7317H75.0641C75.4224 76.4966 75.7659 76.3543 76.0192 76.101C76.2726 75.8477 76.4149 75.5041 76.4149 75.1459C76.4149 74.7877 76.2726 74.4441 76.0192 74.1908C75.7659 73.9375 75.4224 73.7952 75.0641 73.7952H16.9559L30.094 45.0968L38.1983 60.6571C38.3148 60.8807 38.4916 61.0672 38.7086 61.1955C38.9256 61.3239 39.1742 61.3889 39.4263 61.3833C39.6783 61.3777 39.9238 61.3016 40.1349 61.1637C40.3459 61.0259 40.5142 60.8317 40.6206 60.6031L50.7871 38.9195L57.8199 50.8869C57.9451 51.1004 58.1267 51.2754 58.3447 51.3927C58.5626 51.51 58.8086 51.5652 59.0558 51.5522C59.303 51.5392 59.5419 51.4585 59.7464 51.3189C59.9508 51.1793 60.113 50.9863 60.2152 50.7608L75.1002 18.1093L78.1258 25.7814C78.2633 26.1057 78.5221 26.3634 78.847 26.4996C79.1718 26.6358 79.537 26.6397 79.8647 26.5105C80.1924 26.3813 80.4567 26.1292 80.6011 25.808C80.7456 25.4867 80.7589 25.1218 80.6381 24.7909Z" fill="#FFFFFA"/>
</svg>
