<svg width="91" height="91" viewBox="0 0 91 91" fill="none" xmlns="http://www.w3.org/2000/svg">
<path d="M75.5413 13.9175C74.8749 13.2525 74.0732 12.7387 73.1907 12.4109C72.3082 12.083 71.3655 11.9489 70.4266 12.0174C59.4639 12.8381 49.1653 17.5862 41.422 25.3896L40.4044 26.4252H27.1313C26.9518 26.4253 26.7742 26.4612 26.6088 26.5308C26.4433 26.6004 26.2934 26.7022 26.1678 26.8304L12.0932 41.2381C11.9071 41.428 11.7812 41.6686 11.7312 41.9298C11.6812 42.191 11.7094 42.4611 11.8123 42.7063C11.9152 42.9515 12.0882 43.1608 12.3095 43.3082C12.5309 43.4555 12.7908 43.5342 13.0567 43.5344H26.0057L29.4726 47.0012C24.2126 47.1943 19.2255 49.3914 15.5331 53.1425C4.50215 64.3085 13.1918 77.0504 13.2819 77.1764C13.4464 77.4122 13.682 77.5893 13.9542 77.682C14.2264 77.7747 14.5211 77.778 14.7953 77.6917C15.0696 77.6053 15.3091 77.4336 15.479 77.2016C15.649 76.9697 15.7405 76.6896 15.7402 76.402C15.7402 72.0707 19.8014 67.9645 24.0877 67.9645C26.1456 67.9764 28.1148 68.8041 29.5632 70.266C31.0116 71.728 31.821 73.7047 31.8138 75.7627C31.818 76.0068 31.8883 76.2453 32.0173 76.4527C32.1462 76.66 32.3289 76.8286 32.546 76.9404C32.7631 77.0521 33.0065 77.103 33.2502 77.0875C33.4939 77.072 33.7288 76.9907 33.93 76.8523C36.5258 74.8377 38.6301 72.2598 40.0839 69.3131C41.5378 66.3664 42.3032 63.1279 42.3225 59.8421L45.9244 63.4441V76.402C45.9246 76.669 46.004 76.9299 46.1524 77.1518C46.3009 77.3737 46.5117 77.5467 46.7584 77.6488C47.0051 77.7509 47.2765 77.7777 47.5383 77.7257C47.8002 77.6737 48.0408 77.5452 48.2297 77.3565L62.6374 62.9488C62.8864 62.7002 63.0286 62.3642 63.0336 62.0123V49.0543L64.0692 48.0368C71.8726 40.2934 76.6206 29.9949 77.4413 19.0322C77.5099 18.0933 77.3757 17.1506 77.0479 16.2681C76.7201 15.3856 76.2063 14.5839 75.5413 13.9175ZM27.6986 29.1266H37.703L25.9967 40.8329H16.2625L27.6986 29.1266ZM34.1641 73.0973C33.5833 70.8622 32.2788 68.8823 30.4543 67.4667C28.6298 66.0511 26.3879 65.2794 24.0787 65.272C19.6483 65.272 15.5241 68.3877 13.8312 72.4759C12.2553 68.5408 10.9856 61.5801 17.4331 55.0696C19.3462 53.1241 21.6785 51.6414 24.2519 50.7346C26.8254 49.8279 29.572 49.5212 32.2821 49.8378L39.486 57.0416C39.8505 59.9452 39.5619 62.8936 38.6411 65.6714C37.7204 68.4492 36.1908 70.9863 34.1641 73.0973ZM60.3322 61.454L48.6259 73.1603V63.4621L60.3322 51.7558V61.454ZM62.1331 46.1458L60.7284 47.5505L60.6833 47.5956L47.2751 60.9857L28.473 42.1836L41.8992 28.7574L41.9443 28.7124L43.349 27.3257C50.6248 19.9792 60.3059 15.5031 70.6157 14.7189C71.1697 14.6692 71.7279 14.7418 72.2509 14.9315C72.7738 15.1212 73.2487 15.4234 73.6421 15.8167C74.0354 16.2101 74.3376 16.685 74.5273 17.2079C74.717 17.7308 74.7896 18.2891 74.7399 18.8431C73.9556 29.1529 69.4796 38.834 62.1331 46.1098V46.1458Z" fill="#FFFFFA"/>
<path d="M57.181 24.3125C55.2019 24.3136 53.2844 25.0008 51.7552 26.2571C50.2259 27.5134 49.1796 29.261 48.7944 31.2023C48.4093 33.1435 48.7091 35.1583 49.6429 36.9033C50.5766 38.6482 52.0865 40.0155 53.9153 40.772C55.7441 41.5286 57.7786 41.6276 59.6722 41.0523C61.5659 40.477 63.2014 39.2629 64.3003 37.6169C65.3992 35.9709 65.8933 33.9948 65.6985 32.0253C65.5038 30.0558 64.6322 28.2148 63.2322 26.8159C62.4392 26.0193 61.4961 25.3878 60.4574 24.9581C59.4187 24.5284 58.3051 24.309 57.181 24.3125ZM61.3232 37.0094C60.3665 37.9676 59.1072 38.5646 57.7598 38.6985C56.4123 38.8323 55.0602 38.4949 53.9336 37.7437C52.8071 36.9924 51.9758 35.8738 51.5815 34.5784C51.1872 33.283 51.2542 31.891 51.7712 30.6395C52.2881 29.388 53.223 28.3544 54.4165 27.7149C55.61 27.0753 56.9883 26.8694 58.3167 27.1321C59.645 27.3948 60.8412 28.11 61.7014 29.1557C62.5615 30.2014 63.0326 31.5131 63.0341 32.8671C63.037 33.6364 62.8873 34.3986 62.5936 35.1096C62.2999 35.8206 61.8681 36.4663 61.3232 37.0094Z" fill="#FFFFFA"/>
</svg>
