<svg width="90" height="90" viewBox="0 0 90 90" fill="none" xmlns="http://www.w3.org/2000/svg">
<path d="M87.802 17.3438L76.9858 13.0148L72.6586 2.19678L66.9958 7.85778C60.3376 3.90678 52.7722 1.80078 44.9998 1.80078C21.1804 1.80078 1.7998 21.1814 1.7998 45.0008C1.7998 68.8202 21.1804 88.2008 44.9998 88.2008C68.8192 88.2008 88.1998 68.8202 88.1998 45.0008C88.1998 37.2284 86.0938 29.663 82.1428 23.0048L87.802 17.3438ZM74.2138 15.7868L81.3958 18.6596L76.9642 23.0894L69.7858 20.2148L66.913 13.0346L71.3428 8.60298L74.2138 15.7868ZM84.5998 45.0008C84.5998 66.8366 66.8356 84.6008 44.9998 84.6008C23.164 84.6008 5.3998 66.8366 5.3998 45.0008C5.3998 23.165 23.164 5.40078 44.9998 5.40078C51.8182 5.40078 58.4728 7.14858 64.3804 10.4732L62.6866 12.167L66.2866 21.1688L64.0204 23.435C58.9426 18.9476 52.2934 16.2008 44.9998 16.2008C29.1202 16.2008 16.1998 29.1212 16.1998 45.0008C16.1998 60.8804 29.1202 73.8008 44.9998 73.8008C60.8794 73.8008 73.7998 60.8804 73.7998 45.0008C73.7998 37.7072 71.053 31.058 66.5674 25.9784L68.8336 23.7122L77.8354 27.3122L79.5292 25.6184C82.852 31.5278 84.5998 38.1824 84.5998 45.0008ZM55.7998 45.0008C55.7998 50.957 50.956 55.8008 44.9998 55.8008C39.0436 55.8008 34.1998 50.957 34.1998 45.0008C34.1998 39.0446 39.0436 34.2008 44.9998 34.2008C47.329 34.2008 49.4818 34.9496 51.2476 36.2078L45.9214 41.534C45.6244 41.4566 45.3202 41.4008 44.9998 41.4008C43.0126 41.4008 41.3998 43.0118 41.3998 45.0008C41.3998 46.9898 43.0126 48.6008 44.9998 48.6008C46.987 48.6008 48.5998 46.9898 48.5998 45.0008C48.5998 44.6804 48.544 44.3762 48.4666 44.0792L53.7928 38.753C55.051 40.5188 55.7998 42.6716 55.7998 45.0008ZM53.8162 33.6392C51.3754 31.742 48.3226 30.6008 44.9998 30.6008C37.06 30.6008 30.5998 37.061 30.5998 45.0008C30.5998 52.9406 37.06 59.4008 44.9998 59.4008C52.9396 59.4008 59.3998 52.9406 59.3998 45.0008C59.3998 41.678 58.2586 38.6252 56.3614 36.1844L64.024 28.5218C67.8598 32.9462 70.1998 38.699 70.1998 45.0008C70.1998 58.8968 58.8958 70.2008 44.9998 70.2008C31.1038 70.2008 19.7998 58.8968 19.7998 45.0008C19.7998 31.1048 31.1038 19.8008 44.9998 19.8008C51.2998 19.8008 57.0544 22.1408 61.477 25.9784L53.8162 33.6392Z" fill="#FFFFFA"/>
</svg>
