<svg width="64" height="64" viewBox="0 0 64 64" fill="none" xmlns="http://www.w3.org/2000/svg">
<path d="M31.5002 61.9995C37.013 62.0006 42.3836 60.2494 46.8361 56.9988C51.2886 53.7482 54.5927 49.1665 56.2711 43.9153C57.9495 38.6642 57.9154 33.0155 56.1736 27.785C54.4319 22.5545 51.0727 18.0131 46.5812 14.8165L45.4192 16.4455C49.6433 19.4534 52.7795 23.7486 54.3584 28.6879C55.9373 33.6273 55.874 38.9452 54.1778 43.8456C52.4817 48.7459 49.244 52.9651 44.9494 55.8715C40.6549 58.7779 35.5345 60.2152 30.3548 59.9682C25.1751 59.7212 20.2147 57.8032 16.2162 54.5013C12.2177 51.1994 9.39618 46.6913 8.17403 41.6518C6.95188 36.6123 7.39484 31.3125 9.4366 26.5457C11.4784 21.779 15.0091 17.8018 19.5002 15.2095L18.5002 13.4785C13.5414 16.3393 9.66535 20.7568 7.47359 26.0455C5.28183 31.3342 4.89688 37.1984 6.37846 42.7282C7.86005 48.2581 11.1253 53.1443 15.6676 56.6288C20.21 60.1133 25.7753 62.0012 31.5002 61.9995V61.9995Z" fill="#FFFFFA"/>
<path d="M22.6108 53.5093L23.3888 51.6673C21.2387 50.7608 19.2983 49.4212 17.6887 47.7318C16.0791 46.0425 14.8348 44.0396 14.0334 41.8482C13.232 39.6568 12.8906 37.3237 13.0305 34.9945C13.1705 32.6654 13.7887 30.39 14.8468 28.3103L16.0708 31.3713L17.9288 30.6293L15.9288 25.6293C15.8419 25.4115 15.6812 25.2312 15.4748 25.1199C15.2685 25.0086 15.0295 24.9733 14.7998 25.0203L9.7998 26.0203L10.1918 27.9803L13.0588 27.4073C11.877 29.7315 11.1866 32.2742 11.0307 34.8769C10.8747 37.4797 11.2565 40.0866 12.1523 42.5353C13.0481 44.984 14.4387 47.222 16.2373 49.1096C18.036 50.9973 20.2042 52.4943 22.6068 53.5073L22.6108 53.5093Z" fill="#FFFFFA"/>
<path d="M50 35.9993C50.0094 33.4338 49.4947 30.8933 48.4873 28.5337C47.48 26.1741 46.0013 24.0452 44.142 22.2773L42.758 23.7213C44.4771 25.3673 45.8314 27.3559 46.7331 29.5585C47.6348 31.7611 48.0638 34.1285 47.9923 36.5075C47.9209 38.8864 47.3505 41.2238 46.3183 43.3683C45.286 45.5128 43.8148 47.4166 42 48.9564V45.9994H40V50.9994C40 51.2299 40.0796 51.4534 40.2253 51.6319C40.3711 51.8105 40.5741 51.9332 40.8 51.9794L45.8 52.9794L46.192 51.0194L43.332 50.4474C45.4232 48.6655 47.1025 46.4507 48.2538 43.9561C49.405 41.4616 50.0009 38.7468 50 35.9993V35.9993Z" fill="#FFFFFA"/>
<path d="M24.2199 21.626C24.3136 21.7428 24.4324 21.837 24.5674 21.9017C24.7024 21.9664 24.8502 22 24.9999 22H32.7629L30.0219 34.79C29.9719 35.0229 30.0067 35.266 30.12 35.4756C30.2333 35.6851 30.4176 35.8473 30.6399 35.933C30.7547 35.9775 30.8768 36.0003 30.9999 36C31.1753 35.9998 31.3475 35.9535 31.4993 35.8658C31.6511 35.778 31.7772 35.6519 31.8649 35.5L42.8649 16.5C42.9526 16.3481 42.9988 16.1757 42.9989 16.0003C42.9989 15.8248 42.9528 15.6524 42.8652 15.5004C42.7775 15.3485 42.6514 15.2222 42.4995 15.1344C42.3477 15.0465 42.1754 15.0002 41.9999 15H36.2569L38.9749 3.225C39.0088 3.07836 39.0091 2.92597 38.9759 2.77918C38.9426 2.6324 38.8767 2.49501 38.783 2.37725C38.6892 2.2595 38.5702 2.16442 38.4346 2.0991C38.299 2.03378 38.1504 1.9999 37.9999 2H28.9999C28.7724 2.00004 28.5517 2.07764 28.3743 2.21999C28.1969 2.36234 28.0733 2.56094 28.0239 2.783L24.0239 20.783C23.9913 20.9292 23.9921 21.0809 24.026 21.2268C24.0599 21.3727 24.1262 21.5091 24.2199 21.626ZM29.7999 4H36.7409L34.0249 15.775C33.991 15.9216 33.9907 16.074 34.0239 16.2208C34.0572 16.3676 34.1231 16.505 34.2168 16.6227C34.3106 16.7405 34.4297 16.8356 34.5652 16.9009C34.7008 16.9662 34.8494 17.0001 34.9999 17H40.2659L33.2999 29.026L34.9749 21.21C35.0062 21.0644 35.0045 20.9137 34.9701 20.7688C34.9357 20.6239 34.8693 20.4885 34.7759 20.3726C34.6824 20.2566 34.5643 20.163 34.43 20.0985C34.2958 20.0341 34.1488 20.0004 33.9999 20H26.2469L29.7999 4Z" fill="#FFFFFA"/>
<path d="M31.0001 42.0004C32.229 42.0005 33.4362 41.6772 34.5004 41.0629C35.5647 40.4486 36.4485 39.5649 37.0629 38.5007C37.6774 37.4366 38.0009 36.2294 38.001 35.0006C38.001 33.7718 37.6776 32.5646 37.0631 31.5004L35.3321 32.5004C35.8455 33.3908 36.072 34.4179 35.9808 35.4417C35.8895 36.4655 35.485 37.4363 34.8222 38.2219C34.1594 39.0076 33.2706 39.5698 32.2768 39.8322C31.283 40.0946 30.2324 40.0443 29.2682 39.6882C28.304 39.332 27.473 38.6874 26.8883 37.8421C26.3036 36.9967 25.9937 35.9917 26.0007 34.9639C26.0076 33.936 26.3312 32.9353 26.9274 32.098C27.5235 31.2606 28.3632 30.6274 29.3321 30.2844L28.6671 28.4004C27.1101 28.9506 25.7977 30.0337 24.962 31.458C24.1263 32.8823 23.8211 34.5563 24.1003 36.1839C24.3795 37.8115 25.2252 39.2881 26.4878 40.3524C27.7504 41.4168 29.3487 42.0005 31.0001 42.0004V42.0004Z" fill="#FFFFFA"/>
<path d="M56.625 2.21938C56.4779 2.10161 56.3005 2.02779 56.1133 2.00644C55.9261 1.98509 55.7366 2.01707 55.5668 2.09869C55.397 2.18032 55.2537 2.30827 55.1534 2.4678C55.0531 2.62733 54.9999 2.81194 55 3.00038V4.91938L51.625 2.21938C51.4779 2.10161 51.3005 2.02779 51.1133 2.00644C50.9261 1.98509 50.7367 2.01707 50.5668 2.09869C50.397 2.18032 50.2537 2.30827 50.1534 2.4678C50.0531 2.62733 49.9999 2.81194 50 3.00038V11.0004C49.9999 11.1888 50.0531 11.3734 50.1534 11.533C50.2537 11.6925 50.397 11.8204 50.5668 11.9021C50.7367 11.9837 50.9261 12.0157 51.1133 11.9943C51.3005 11.973 51.4779 11.8991 51.625 11.7814L55 9.08138V11.0004C54.9999 11.1888 55.0531 11.3734 55.1534 11.533C55.2537 11.6925 55.397 11.8204 55.5668 11.9021C55.7366 11.9837 55.9261 12.0157 56.1133 11.9943C56.3005 11.973 56.4779 11.8991 56.625 11.7814L61.625 7.78138C61.7421 7.68769 61.8367 7.56885 61.9017 7.43366C61.9667 7.29846 62.0005 7.15038 62.0005 7.00038C62.0005 6.85037 61.9667 6.70229 61.9017 6.56709C61.8367 6.4319 61.7421 6.31306 61.625 6.21938L56.625 2.21938ZM52 8.91937V5.08138L54.4 7.00038L52 8.91937ZM57 8.91937V5.08138L59.4 7.00038L57 8.91937Z" fill="#FFFFFA"/>
</svg>
