<svg width="72" height="67" viewBox="0 0 72 67" fill="none" xmlns="http://www.w3.org/2000/svg">
<path d="M38.5644 13.9044L38.8177 13.8271L38.9981 13.6336L39.3302 13.2772L39.6602 12.9233C39.6606 12.9229 39.661 12.9224 39.6613 12.922C45.7144 6.47055 51.6259 2.9363 56.6783 1.7833C61.6809 0.641675 65.8094 1.82833 68.5754 4.79346C70.9974 8.09187 71.5253 12.5563 69.6924 17.5751C67.8461 22.6304 63.6086 28.2041 56.5916 33.4871L56.5896 33.4887C56.3378 33.6793 56.0821 33.8698 55.8226 34.0602L55.6107 34.2156L55.504 34.4564C54.8973 35.8262 53.9232 37.9276 52.9127 39.7152C52.4057 40.6122 51.9064 41.3999 51.4547 41.9704C51.2285 42.2561 51.0328 42.4635 50.8725 42.5989C50.8571 42.6119 50.8425 42.6238 50.8289 42.6347C50.8245 42.5626 50.8225 42.4741 50.8252 42.3665C50.8399 41.7855 50.9625 41.0983 51.0951 40.3555C51.1544 40.023 51.2157 39.6792 51.2702 39.3289L51.6224 37.0662L49.7252 38.3297C34.4009 48.5353 13.5101 59.2218 2.51051 64.1778C8.82287 53.5917 22.076 33.5979 34.0511 19.2842L35.4551 17.606L33.2604 17.6353C32.9728 17.6391 32.639 17.6514 32.315 17.6634C32.0891 17.6717 31.868 17.6798 31.6706 17.6848C31.1433 17.6981 30.6858 17.6936 30.3239 17.6476C30.2049 17.6325 30.1135 17.6147 30.0446 17.598C30.0715 17.5652 30.1102 17.5225 30.1651 17.4702C30.3174 17.325 30.5425 17.1547 30.8456 16.9648C31.4513 16.5852 32.2704 16.188 33.1955 15.7983C35.0394 15.0216 37.1761 14.3278 38.5644 13.9044Z" stroke="url(#paint0_linear_1689_337)" stroke-width="2"/>
<defs>
<linearGradient id="paint0_linear_1689_337" x1="55.8153" y1="2.87157" x2="12.4736" y2="67.0263" gradientUnits="userSpaceOnUse">
<stop offset="0.155704" stop-color="#8BC540"/>
<stop offset="0.476836" stop-color="#8BC540" stop-opacity="0.216491"/>
<stop offset="1" stop-color="#8BC540" stop-opacity="0.46"/>
</linearGradient>
</defs>
</svg>
