<svg width="90" height="74" viewBox="0 0 90 74" fill="none" xmlns="http://www.w3.org/2000/svg">
<path d="M30.4709 9.86725C30.1975 9.58912 29.8727 9.36856 29.5152 9.21813C29.1577 9.06755 28.7746 8.99009 28.3876 8.99009C28.0006 8.99009 27.6174 9.06755 27.2599 9.21813C26.9026 9.36856 26.5778 9.58912 26.3042 9.86725L1.40708 35.1684C1.1333 35.4461 0.916105 35.776 0.767914 36.139C0.619724 36.5021 0.543457 36.8913 0.543457 37.2843C0.543457 37.6773 0.619724 38.0665 0.767914 38.4296C0.916105 38.7926 1.1333 39.1224 1.40708 39.4002L26.2453 64.6864C26.7979 65.2476 27.5473 65.5628 28.3287 65.5628C29.1102 65.5628 29.8595 65.2476 30.412 64.6864C30.9646 64.1252 31.275 63.3641 31.275 62.5705C31.275 61.7769 30.9646 61.0158 30.412 60.4546L7.64978 37.2768L30.4709 14.0991C30.7448 13.8212 30.9619 13.4915 31.1101 13.1284C31.2583 12.7654 31.3346 12.3761 31.3346 11.9832C31.3346 11.5902 31.2583 11.2009 31.1101 10.8379C30.9619 10.4748 30.7448 10.1449 30.4709 9.86725Z" fill="url(#paint0_linear_537_869)"/>
<path d="M88.6872 35.1684L63.79 9.86726C63.2374 9.30606 62.488 8.99084 61.7066 8.99084C60.9253 8.99084 60.1758 9.30606 59.6233 9.86726C59.0707 10.4285 58.7603 11.1896 58.7603 11.9832C58.7603 12.7767 59.0707 13.5379 59.6233 14.0991L82.4445 37.2768L59.6233 60.4546C59.0707 61.0158 58.7603 61.7769 58.7603 62.5705C58.7603 63.3641 59.0707 64.1252 59.6233 64.6864C60.1758 65.2476 60.9253 65.5628 61.7066 65.5628C62.488 65.5628 63.2374 65.2476 63.79 64.6864L88.6872 39.3852C89.2356 38.8249 89.5435 38.067 89.5435 37.2768C89.5435 36.4867 89.2356 35.7287 88.6872 35.1684Z" fill="url(#paint1_linear_537_869)"/>
<path d="M52.6443 0.626329C52.2643 0.547884 51.8728 0.546448 51.4923 0.622082C51.1117 0.697702 50.7497 0.848926 50.4268 1.06707C50.1039 1.28521 49.8267 1.56596 49.611 1.8932C49.3951 2.22045 49.2452 2.58775 49.1696 2.97403L35.8155 70.3989C35.7383 70.7848 35.7369 71.1824 35.8114 71.569C35.8859 71.9554 36.0347 72.3232 36.2495 72.651C36.4643 72.9789 36.7407 73.2605 37.0628 73.4797C37.3851 73.6988 37.7467 73.851 38.127 73.9279C38.3229 73.9479 38.5202 73.9479 38.716 73.9279C39.4069 73.9413 40.0807 73.7075 40.619 73.2674C41.1573 72.8272 41.5261 72.2088 41.6607 71.5204L54.9558 4.15534C55.0331 3.7694 55.0346 3.37177 54.9601 2.98527C54.8856 2.59879 54.7367 2.23102 54.5219 1.90314C54.3071 1.57524 54.0308 1.29365 53.7085 1.07454C53.3863 0.85543 53.0247 0.703115 52.6443 0.626329Z" fill="url(#paint2_linear_537_869)"/>
<defs>
<linearGradient id="paint0_linear_537_869" x1="3.85914" y1="-1140.85" x2="91.5601" y2="-1140.65" gradientUnits="userSpaceOnUse">
<stop offset="0.0989793" stop-color="#8BC540"/>
<stop offset="1" stop-color="#8BC540" stop-opacity="0"/>
</linearGradient>
<linearGradient id="paint1_linear_537_869" x1="3.85914" y1="-1140.85" x2="91.5601" y2="-1140.65" gradientUnits="userSpaceOnUse">
<stop offset="0.0989793" stop-color="#8BC540"/>
<stop offset="1" stop-color="#8BC540" stop-opacity="0"/>
</linearGradient>
<linearGradient id="paint2_linear_537_869" x1="3.85914" y1="-1140.85" x2="91.5601" y2="-1140.65" gradientUnits="userSpaceOnUse">
<stop offset="0.0989793" stop-color="#8BC540"/>
<stop offset="1" stop-color="#8BC540" stop-opacity="0"/>
</linearGradient>
</defs>
</svg>
