<svg width="89" height="52" viewBox="0 0 89 52" fill="none" xmlns="http://www.w3.org/2000/svg">
<path d="M88.9383 35.3993L80.2944 5.95293C80.1659 5.51346 79.8725 5.14072 79.4756 4.91246C79.0787 4.6842 78.6089 4.61818 78.1644 4.72822L67.3728 7.46164C65.9706 7.85212 65.8286 9.23658 66.3255 10.4435C57.7881 10.5678 50.6528 1.10733 41.8845 3.80525L36.1515 5.34945L22.3424 5.93518C22.8749 4.78147 22.7151 3.37926 21.3307 2.98877L10.681 0.0601141C10.2412 -0.0573873 9.77276 -0.00129972 9.37305 0.216664C8.97333 0.434804 8.67265 0.798136 8.53332 1.23158L0.0845814 28.051C0.0114536 28.2793 -0.014656 28.52 0.00781482 28.7587C0.0302856 28.9974 0.100875 29.229 0.215324 29.4397C0.329772 29.6504 0.485718 29.8357 0.673738 29.9845C0.861758 30.1332 1.07796 30.2422 1.30929 30.3052L11.959 33.2161C12.366 33.3125 12.7939 33.2621 13.1673 33.0737C13.5408 32.8854 13.8358 32.5711 14.0002 32.1866C17.9583 37.5115 22.3246 42.9961 28.0755 46.5637L34.1813 50.5751C35.0065 51.1189 35.945 51.4675 36.9252 51.5941C37.9055 51.7204 38.9016 51.6216 39.8379 51.3049C40.7741 50.9883 41.6259 50.4622 42.3281 49.7668C43.0303 49.0712 43.5645 48.2245 43.8902 47.2914C44.6189 47.8544 45.4682 48.2412 46.3713 48.4214C47.2743 48.6013 48.2071 48.5697 49.096 48.3291C49.9849 48.0884 50.806 47.645 51.4948 47.0339C52.1837 46.4228 52.7218 45.6602 53.0667 44.8065C53.8935 45.279 54.8172 45.5568 55.7675 45.6189C56.7179 45.6808 57.6698 45.5255 58.5511 45.1645C59.4324 44.8033 60.2197 44.2461 60.8532 43.5353C61.4869 42.8242 61.9501 41.9781 62.2077 41.0614C62.9665 41.3966 63.7852 41.575 64.6148 41.5862C65.4443 41.5972 66.2675 41.4405 67.035 41.1256C67.8025 40.8106 68.4984 40.3439 69.0811 39.7532C69.6637 39.1627 70.1211 38.4605 70.4257 37.689L74.0821 37.0855L74.6678 39.1267C74.8 39.5667 75.0977 39.9384 75.4981 40.1634C75.8987 40.3885 76.3708 40.4495 76.8155 40.3336L87.5894 37.6002C87.826 37.5505 88.0498 37.4531 88.2475 37.3139C88.4451 37.1748 88.6121 36.9966 88.7383 36.7905C88.8647 36.5844 88.9476 36.3547 88.982 36.1155C89.0163 35.8762 89.0015 35.6325 88.9383 35.3993ZM3.93621 27.3588L11.32 3.9295L18.6328 5.91743L11.2312 29.3467L3.93621 27.3588ZM66.716 37.2275C66.2419 37.7065 65.6101 37.9974 64.9377 38.0464C64.2655 38.0954 63.5982 37.8991 63.0596 37.4937L56.1374 32.0091C55.7678 31.7172 55.2975 31.584 54.8298 31.6391C54.3621 31.6939 53.9354 31.9325 53.6436 32.302C53.3518 32.6716 53.2186 33.1419 53.2735 33.6094C53.3285 34.0771 53.5669 34.5038 53.9364 34.7958L57.9833 37.9907C60.7167 40.3869 56.8118 43.635 54.4334 41.5406L47.7419 35.63C47.3865 35.3192 46.9222 35.1625 46.4511 35.1941C45.9802 35.2257 45.5409 35.4431 45.2303 35.7986C44.9197 36.154 44.7628 36.6183 44.7944 37.0892C44.8262 37.5603 45.0436 37.9994 45.3989 38.3102L49.2151 41.6648C51.3628 43.706 47.9371 46.2619 46.0202 44.5758L39.0446 38.7184C38.8137 38.5329 38.5402 38.4082 38.2487 38.3555C37.9573 38.3027 37.6573 38.3237 37.3762 38.4167C37.1584 38.4822 36.9562 38.5915 36.7823 38.7381C36.6083 38.8846 36.4662 39.0651 36.3645 39.2687C36.1786 39.6228 36.1177 40.0292 36.1919 40.4224C36.266 40.8153 36.4706 41.1719 36.7727 41.4341L39.9676 44.132C42.2218 46.5459 38.5121 49.4569 36.1692 47.6819L30.0634 43.6705C24.0996 40.1206 19.4137 33.5888 15.3669 28.1753L21.2419 9.53833L32.8678 9.11234L27.259 16.9221C23.0169 23.1167 31.9094 29.3467 36.8969 24.2704L39.4884 21.679C40.876 20.3513 42.6929 19.5643 44.6105 19.4601C46.528 19.3559 48.4195 19.9415 49.9428 21.111L66.432 34.1746C66.6667 34.3451 66.8625 34.5636 67.0061 34.8159C67.1495 35.0681 67.2377 35.3478 67.2647 35.6368C67.2915 35.9256 67.2565 36.217 67.1619 36.4912C67.0673 36.7655 66.9154 37.0164 66.716 37.2275ZM70.5322 34.1036C70.1898 33.0359 69.5343 32.0959 68.6507 31.4057L52.1615 18.3243C49.9513 16.6225 47.2039 15.7707 44.4186 15.9239C41.6336 16.0769 38.996 17.2247 36.9857 19.1585L34.3765 21.7677C32.5128 23.8089 28.395 21.5902 30.1344 18.981L37.5004 8.6686L42.8253 7.2309C47.6531 5.6512 52.7827 9.75131 57.0248 11.5795C60.2616 13.2102 63.8371 14.0554 67.4615 14.0467L73.2123 33.5711L70.5322 34.1036ZM77.6319 36.4997L69.9997 10.4613L77.3302 8.68635L84.9802 34.7248L77.6319 36.4997Z" fill="url(#paint0_linear_537_886)"/>
<defs>
<linearGradient id="paint0_linear_537_886" x1="58.7248" y1="-52.629" x2="58.7248" y2="175.081" gradientUnits="userSpaceOnUse">
<stop offset="0.203125" stop-color="#98C540"/>
<stop offset="0.817708" stop-color="#8BC540" stop-opacity="0"/>
</linearGradient>
</defs>
</svg>
