<svg width="89" height="69" viewBox="0 0 89 69" fill="none" xmlns="http://www.w3.org/2000/svg">
<path d="M68.6818 22.4315C67.8483 9.92399 57.3056 0 44.4661 0C31.6233 0 21.0788 9.92819 20.2498 22.4402C8.7676 23.8704 0 33.5559 0 45.1776C0 57.8298 10.396 68.1235 23.1746 68.1235H58.4178C59.4202 68.1235 60.2331 67.3185 60.2331 66.326C60.2331 65.3335 59.4202 64.5286 58.4178 64.5286H23.1746C12.398 64.5283 3.63073 55.8475 3.63073 45.1776C3.63073 34.9097 11.7493 26.4338 22.1132 25.8817C23.0766 25.8305 23.8312 25.042 23.8312 24.087C23.8312 24.0513 23.8303 24.0163 23.8282 23.9806C23.8554 12.7358 33.1028 3.59489 44.4661 3.59489C55.8312 3.59489 65.0802 12.7373 65.1041 23.9848C65.1025 24.0196 65.1013 24.0561 65.1013 24.0834C65.1013 25.0408 65.8593 25.8302 66.8247 25.8784C77.2237 26.4 85.3693 34.877 85.3693 45.1773C85.3693 51.0268 82.7376 56.5015 78.149 60.1973C77.3711 60.8237 77.2537 61.9558 77.8863 62.7257C78.519 63.4959 79.6624 63.6122 80.44 62.9858C85.88 58.6042 89 52.1133 89 45.177C89 33.5197 80.2027 23.8305 68.6818 22.4315Z" fill="url(#paint0_linear_537_875)"/>
<path d="M42.6507 32.2641V55.1849C42.6507 56.1773 43.4637 56.9823 44.4661 56.9823C45.4685 56.9823 46.2815 56.1773 46.2815 55.1849V32.2641C46.2815 31.2717 45.4685 30.4667 44.4661 30.4667C43.4637 30.4667 42.6507 31.2717 42.6507 32.2641Z" fill="url(#paint1_linear_537_875)"/>
<path d="M54.8491 35.5972C55.3138 35.5972 55.7782 35.4217 56.1328 35.0709C56.8417 34.3689 56.8417 33.2309 56.1328 32.529L45.7499 22.2485C45.041 21.5466 43.8912 21.5466 43.1827 22.2485L32.7997 32.529C32.0908 33.2309 32.0908 34.3689 32.7997 35.0709C33.5086 35.7728 34.6583 35.7728 35.3669 35.0709L44.4661 26.0615L53.5653 35.0709C53.9199 35.4217 54.3847 35.5972 54.8491 35.5972Z" fill="url(#paint2_linear_537_875)"/>
<defs>
<linearGradient id="paint0_linear_537_875" x1="3.31569" y1="-1059.7" x2="91.0165" y2="-1059.49" gradientUnits="userSpaceOnUse">
<stop offset="0.0989793" stop-color="#8BC540"/>
<stop offset="1" stop-color="#8BC540" stop-opacity="0"/>
</linearGradient>
<linearGradient id="paint1_linear_537_875" x1="3.31569" y1="-1059.7" x2="91.0165" y2="-1059.49" gradientUnits="userSpaceOnUse">
<stop offset="0.0989793" stop-color="#8BC540"/>
<stop offset="1" stop-color="#8BC540" stop-opacity="0"/>
</linearGradient>
<linearGradient id="paint2_linear_537_875" x1="3.31569" y1="-1059.7" x2="91.0165" y2="-1059.49" gradientUnits="userSpaceOnUse">
<stop offset="0.0989793" stop-color="#8BC540"/>
<stop offset="1" stop-color="#8BC540" stop-opacity="0"/>
</linearGradient>
</defs>
</svg>
