<svg width="90" height="90" viewBox="0 0 90 90" fill="none" xmlns="http://www.w3.org/2000/svg">
<g opacity="0.9">
<path d="M87.4439 2.6245C86.5555 1.71437 85.4868 1.0111 84.3104 0.56238C83.1339 0.113664 81.8773 -0.0699925 80.6256 0.0238704C66.0117 1.1472 52.2829 7.64601 41.9605 18.3269L40.6041 19.7443H22.9101C22.6709 19.7445 22.434 19.7936 22.2135 19.8889C21.993 19.9841 21.7931 20.1235 21.6257 20.2989L2.86332 40.0193C2.61519 40.2792 2.4473 40.6086 2.38069 40.966C2.31407 41.3235 2.3517 41.6932 2.48885 42.0288C2.626 42.3644 2.85658 42.651 3.15168 42.8526C3.44679 43.0542 3.79329 43.162 4.14776 43.1623H21.4096L26.0312 47.9075C19.0192 48.1717 12.3711 51.179 7.44887 56.3133C-7.2561 71.5966 4.32782 89.0368 4.44786 89.2094C4.66725 89.5321 4.98123 89.7745 5.34409 89.9014C5.70695 90.0282 6.09977 90.0328 6.46537 89.9146C6.83097 89.7963 7.15028 89.5614 7.37683 89.2439C7.60338 88.9264 7.72534 88.543 7.72496 88.1494C7.72496 82.221 13.1388 76.6007 18.8527 76.6007C21.5961 76.617 24.2211 77.7499 26.152 79.7509C28.0828 81.7519 29.1618 84.4576 29.1522 87.2743C29.1578 87.6085 29.2515 87.9349 29.4234 88.2187C29.5953 88.5026 29.8389 88.7333 30.1283 88.8863C30.4177 89.0393 30.7421 89.1089 31.0669 89.0876C31.3918 89.0664 31.705 88.9551 31.9732 88.7657C35.4336 86.0083 38.2387 82.4798 40.1768 78.4465C42.1149 74.4133 43.1353 69.9807 43.1609 65.4833L47.9626 70.4134V88.1494C47.9629 88.5148 48.0686 88.872 48.2665 89.1757C48.4644 89.4794 48.7455 89.7161 49.0743 89.8559C49.4031 89.9957 49.7649 90.0323 50.114 89.9612C50.4631 89.8899 50.7838 89.7141 51.0356 89.4559L70.2421 69.7355C70.5741 69.3952 70.7635 68.9353 70.7703 68.4537V50.7176L72.1507 49.3249C82.5533 38.7263 88.8827 24.6302 89.9768 9.62524C90.0682 8.3401 89.8893 7.04979 89.4523 5.84188C89.0153 4.63396 88.3303 3.53668 87.4439 2.6245ZM23.6664 23.4419H37.0029L21.3976 39.4647H8.4212L23.6664 23.4419ZM32.2853 83.6261C31.511 80.5668 29.7721 77.8569 27.3399 75.9193C24.9077 73.9817 21.9191 72.9254 18.8407 72.9154C12.9347 72.9154 7.43687 77.1799 5.1801 82.7756C3.07939 77.3895 1.38682 67.8621 9.98173 58.9509C12.532 56.288 15.6411 54.2586 19.0717 53.0175C22.5023 51.7765 26.1637 51.3566 29.7764 51.7899L39.3797 61.6501C39.8657 65.6244 39.4809 69.66 38.2535 73.4621C37.0261 77.2641 34.987 80.7367 32.2853 83.6261ZM67.1691 67.6895L51.5638 83.7123V70.438L67.1691 54.4152V67.6895ZM69.5699 46.7366L49.7632 67.0486L24.6987 41.3135L42.6568 22.8749L44.5294 20.9768C54.2285 10.9215 67.134 4.79488 80.8777 3.72145C81.6163 3.65345 82.3604 3.75278 83.0575 4.01242C83.7546 4.27207 84.3877 4.68569 84.9121 5.22408C85.4364 5.76247 85.8393 6.4125 86.0921 7.12826C86.345 7.84402 86.4418 8.60806 86.3755 9.36641C85.3301 23.4778 79.3632 36.7287 69.5699 46.6873V46.7366Z" fill="#8BC540"/>
<path d="M62.824 17.2792C60.1857 17.2806 57.6296 18.2212 55.591 19.9408C53.5524 21.6603 52.1576 24.0524 51.6442 26.7095C51.1307 29.3665 51.5304 32.1242 52.7752 34.5126C54.0199 36.901 56.0327 38.7724 58.4706 39.8079C60.9085 40.8434 63.6207 40.979 66.145 40.1916C68.6693 39.4041 70.8497 37.7424 72.3145 35.4894C73.7794 33.2365 74.4381 30.5317 74.1785 27.836C73.9189 25.1403 72.757 22.6204 70.8907 20.7056C69.8336 19.6153 68.5763 18.751 67.1916 18.1628C65.807 17.5747 64.3224 17.2744 62.824 17.2792ZM68.3459 34.6578C67.0705 35.9694 65.3918 36.7865 63.5956 36.9698C61.7993 37.153 59.9968 36.6912 58.495 35.6629C56.9932 34.6346 55.8852 33.1036 55.3595 31.3305C54.8339 29.5575 54.9232 27.6522 55.6123 25.9392C56.3014 24.2262 57.5477 22.8115 59.1387 21.9361C60.7297 21.0607 62.5672 20.7788 64.3379 21.1384C66.1087 21.498 67.7032 22.4769 68.8499 23.9082C69.9966 25.3396 70.6245 27.1349 70.6266 28.9882C70.6305 30.0412 70.4309 31.0844 70.0394 32.0576C69.6479 33.0308 69.0723 33.9146 68.3459 34.6578Z" fill="#8BC540"/>
</g>
</svg>
