<svg width="90" height="90" viewBox="0 0 90 90" fill="none" xmlns="http://www.w3.org/2000/svg">
<g clip-path="url(#clip0_537_849)">
<path d="M88.903 83.602L66.5155 61.2145C72.6131 53.7567 75.6109 44.2407 74.8891 34.6346C74.1672 25.0286 69.7808 16.0674 62.6372 9.60474C55.4935 3.14206 46.1392 -0.327711 36.5091 -0.0868856C26.879 0.15394 17.7098 4.08694 10.8981 10.8986C4.08645 17.7103 0.153452 26.8795 -0.0873739 36.5096C-0.328199 46.1397 3.14157 55.494 9.60425 62.6377C16.0669 69.7813 25.0281 74.1677 34.6341 74.8895C44.2402 75.6114 53.7562 72.6136 61.214 66.516L83.6015 88.9035C84.3168 89.5427 85.2497 89.8839 86.2086 89.857C87.1676 89.83 88.0799 89.4371 88.7582 88.7587C89.4366 88.0804 89.8295 87.1681 89.8565 86.2091C89.8834 85.2502 89.5422 84.3173 88.903 83.602ZM37.5046 67.5004C31.5681 67.5032 25.7642 65.7452 20.827 62.4488C15.8898 59.1524 12.0413 54.4657 9.76818 48.9816C7.4951 43.4975 6.89963 37.4625 8.0571 31.6399C9.21457 25.8174 12.073 20.4689 16.2707 16.2712C20.4684 12.0735 25.8169 9.21506 31.6394 8.05759C37.462 6.90012 43.4971 7.49559 48.9811 9.76867C54.4652 12.0418 59.1519 15.8903 62.4483 20.8275C65.7447 25.7646 67.5027 31.5686 67.4999 37.5051C67.4887 45.4569 64.3249 53.0798 58.7022 58.7026C53.0794 64.3254 45.4564 67.4892 37.5046 67.5004Z" fill="url(#paint0_linear_537_849)"/>
</g>
<defs>
<linearGradient id="paint0_linear_537_849" x1="3.25222" y1="-1399.43" x2="91.8964" y2="-1399.27" gradientUnits="userSpaceOnUse">
<stop offset="0.0989793" stop-color="#8BC540"/>
<stop offset="1" stop-color="#8BC540" stop-opacity="0"/>
</linearGradient>
<clipPath id="clip0_537_849">
<rect width="90" height="90" fill="white"/>
</clipPath>
</defs>
</svg>
