<svg width="77" height="70" viewBox="0 0 77 70" fill="none" xmlns="http://www.w3.org/2000/svg">
<path d="M75.435 36.8396H73.21C72.7917 23.1425 64.9597 11.6882 53.2829 6.57961H67.87V8.80461C67.87 9.15867 68.0106 9.49823 68.261 9.74859C68.5113 9.99896 68.8509 10.1396 69.205 10.1396C69.559 10.1396 69.8986 9.99896 70.149 9.74859C70.3993 9.49823 70.54 9.15867 70.54 8.80461V1.68461C70.54 1.33055 70.3993 0.990983 70.149 0.740622C69.8986 0.490261 69.559 0.349609 69.205 0.349609C68.8509 0.349609 68.5113 0.490261 68.261 0.740622C68.0106 0.990983 67.87 1.33055 67.87 1.68461V3.90961H43.84V1.68461C43.84 1.33055 43.6993 0.990983 43.449 0.740622C43.1986 0.490261 42.859 0.349609 42.505 0.349609H35.385C35.0309 0.349609 34.6913 0.490261 34.441 0.740622C34.1906 0.990983 34.05 1.33055 34.05 1.68461V3.90961H10.02V1.68461C10.02 1.33055 9.87933 0.990983 9.62897 0.740622C9.3786 0.490261 9.03904 0.349609 8.68498 0.349609C8.33091 0.349609 7.99135 0.490261 7.74099 0.740622C7.49063 0.990983 7.34998 1.33055 7.34998 1.68461V8.80461C7.34998 9.15867 7.49063 9.49823 7.74099 9.74859C7.99135 9.99896 8.33091 10.1396 8.68498 10.1396C9.03904 10.1396 9.3786 9.99896 9.62897 9.74859C9.87933 9.49823 10.02 9.15867 10.02 8.80461V6.57961H24.5626C18.4448 9.18761 13.2209 13.5239 9.53111 19.0569C5.84136 24.59 3.84612 31.0794 3.78998 37.7296H1.56498C1.21092 37.7296 0.871354 37.8703 0.620993 38.1206C0.370632 38.371 0.22998 38.7105 0.22998 39.0646V46.1846C0.22998 46.5387 0.370632 46.8782 0.620993 47.1286C0.871354 47.379 1.21092 47.5196 1.56498 47.5196H8.68498C9.03904 47.5196 9.3786 47.379 9.62897 47.1286C9.87933 46.8782 10.02 46.5387 10.02 46.1846V39.0646C10.02 38.7105 9.87933 38.371 9.62897 38.1206C9.3786 37.8703 9.03904 37.7296 8.68498 37.7296H6.45998C6.54909 30.1018 9.38948 22.7628 14.4586 17.0624C19.5278 11.362 26.4848 7.68376 34.05 6.70421V8.80461C34.05 9.15867 34.1906 9.49823 34.441 9.74859C34.6913 9.99896 35.0309 10.1396 35.385 10.1396H37.6812L23.8239 45.3035C23.7068 45.6101 23.7068 45.9492 23.8239 46.2558L28.7901 59.7749L28.71 68.4257C28.7088 68.6018 28.7425 68.7763 28.809 68.9393C28.8756 69.1023 28.9737 69.2505 29.0978 69.3754C29.2219 69.5004 29.3695 69.5995 29.532 69.6671C29.6946 69.7348 29.8689 69.7696 30.045 69.7696H46.955C47.309 69.7696 47.6486 69.6289 47.899 69.3786C48.1493 69.1282 48.29 68.7887 48.29 68.4346V59.8194L54.3509 46.3359C54.4206 46.1712 54.4566 45.9941 54.4566 45.8153C54.4566 45.6364 54.4206 45.4593 54.3509 45.2946L40.2088 10.1396H42.505C42.859 10.1396 43.1986 9.99896 43.449 9.74859C43.6993 9.49823 43.84 9.15867 43.84 8.80461V6.70421C58.97 8.77791 69.9971 21.2112 70.54 36.8396H68.315C67.9609 36.8396 67.6213 36.9803 67.371 37.2306C67.1206 37.481 66.98 37.8205 66.98 38.1746V45.2946C66.98 45.6487 67.1206 45.9882 67.371 46.2386C67.6213 46.489 67.9609 46.6296 68.315 46.6296H75.435C75.789 46.6296 76.1286 46.489 76.379 46.2386C76.6293 45.9882 76.77 45.6487 76.77 45.2946V38.1746C76.77 37.8205 76.6293 37.481 76.379 37.2306C76.1286 36.9803 75.789 36.8396 75.435 36.8396V36.8396ZM7.34998 44.8496H2.89998V40.3996H7.34998V44.8496ZM31.38 67.0996L31.4334 60.8696H45.62V67.0996H31.38ZM46.0917 58.1996H31.0507L26.4939 45.8108L37.61 17.6067V41.7346C37.61 42.0887 37.7506 42.4282 38.001 42.6786C38.2513 42.929 38.5909 43.0696 38.945 43.0696C39.299 43.0696 39.6386 42.929 39.889 42.6786C40.1393 42.4282 40.28 42.0887 40.28 41.7346V17.4732L51.6809 45.7396L46.0917 58.1996ZM41.17 7.46961H36.72V3.01961H41.17V7.46961ZM74.1 43.9596H69.65V39.5096H74.1V43.9596Z" fill="url(#paint0_linear_537_859)"/>
<defs>
<linearGradient id="paint0_linear_537_859" x1="3.08147" y1="-1079.52" x2="78.5043" y2="-1079.37" gradientUnits="userSpaceOnUse">
<stop offset="0.0989793" stop-color="#8BC540"/>
<stop offset="1" stop-color="#8BC540" stop-opacity="0"/>
</linearGradient>
</defs>
</svg>
