<svg width="20" height="21" viewBox="0 0 20 21" fill="none" xmlns="http://www.w3.org/2000/svg">
<path d="M10 0.621094C4.48 0.621094 0 5.10109 0 10.6211C0 16.1411 4.48 20.6211 10 20.6211H15V18.6211H10C5.66 18.6211 2 14.9611 2 10.6211C2 6.28109 5.66 2.62109 10 2.62109C14.34 2.62109 18 6.28109 18 10.6211V12.0511C18 12.8411 17.29 13.6211 16.5 13.6211C15.71 13.6211 15 12.8411 15 12.0511V10.6211C15 7.86109 12.76 5.62109 10 5.62109C7.24 5.62109 5 7.86109 5 10.6211C5 13.3811 7.24 15.6211 10 15.6211C11.38 15.6211 12.64 15.0611 13.54 14.1511C14.19 15.0411 15.31 15.6211 16.5 15.6211C18.47 15.6211 20 14.0211 20 12.0511V10.6211C20 5.10109 15.52 0.621094 10 0.621094ZM10 13.6211C8.34 13.6211 7 12.2811 7 10.6211C7 8.96109 8.34 7.62109 10 7.62109C11.66 7.62109 13 8.96109 13 10.6211C13 12.2811 11.66 13.6211 10 13.6211Z" fill="#ea1414"/>
</svg>
