<svg width="91" height="91" viewBox="0 0 91 91" fill="none" xmlns="http://www.w3.org/2000/svg">
<path d="M34.349 29.1479L32.1428 42.0248C32.097 42.2778 32.1243 42.5386 32.2216 42.7767C32.3188 43.0147 32.482 43.22 32.692 43.3685C32.9019 43.517 33.1499 43.6024 33.4067 43.6148C33.6636 43.6273 33.9186 43.5661 34.1419 43.4385L45.6681 37.3603L57.2303 43.4385C57.4534 43.5566 57.7051 43.6098 57.9569 43.5921C58.2087 43.5744 58.4505 43.4865 58.6549 43.3384C58.8592 43.1903 59.018 42.9878 59.1132 42.7541C59.2084 42.5203 59.2362 42.2645 59.1934 42.0158L56.9872 29.1389L66.3342 20.026C66.5151 19.8502 66.6431 19.6272 66.7038 19.3825C66.7644 19.1377 66.7554 18.8808 66.6776 18.6408C66.5998 18.4009 66.4564 18.1876 66.2636 18.025C66.0709 17.8624 65.8364 17.757 65.5868 17.7207L52.6559 15.8477L46.8748 4.14142C46.7632 3.91546 46.5906 3.72522 46.3766 3.59219C46.1626 3.45917 45.9156 3.38867 45.6636 3.38867C45.4116 3.38867 45.1646 3.45917 44.9506 3.59219C44.7366 3.72522 44.564 3.91546 44.4525 4.14142L38.6443 15.8477L25.7494 17.7207C25.4998 17.757 25.2654 17.8624 25.0726 18.025C24.8798 18.1876 24.7364 18.4009 24.6586 18.6408C24.5808 18.8808 24.5718 19.1377 24.6325 19.3825C24.6932 19.6272 24.8212 19.8502 25.002 20.026L34.349 29.1479ZM39.7519 18.4141C39.9687 18.3827 40.1746 18.2991 40.3519 18.1705C40.5291 18.0419 40.6724 17.872 40.7695 17.6757L45.6501 7.77037L50.5307 17.6757C50.6278 17.872 50.7711 18.0419 50.9483 18.1705C51.1256 18.2991 51.3315 18.3827 51.5483 18.4141L62.4711 19.9989L54.5829 27.7071C54.426 27.8603 54.3087 28.0494 54.2413 28.258C54.1738 28.4667 54.1582 28.6887 54.1957 28.9047L56.0597 39.7826L46.2984 34.6408C46.1042 34.5383 45.8878 34.4847 45.6681 34.4847C45.4484 34.4847 45.2321 34.5383 45.0378 34.6408L35.2675 39.7736L37.1315 28.9047C37.1691 28.6887 37.1534 28.4667 37.0859 28.258C37.0185 28.0494 36.9012 27.8603 36.7443 27.7071L28.8381 20.0079L39.7519 18.4141Z" fill="#FFFFFA"/>
<path d="M77.3652 40.5209C77.3768 40.4192 77.3768 40.3165 77.3652 40.2148V40.1517C77.342 40.0742 77.3119 39.9988 77.2752 39.9266L77.2301 39.8456C77.1903 39.7818 77.1451 39.7216 77.0951 39.6655L77.041 39.6024C76.968 39.5271 76.8864 39.4606 76.7979 39.4043L65.2987 32.2815C64.9942 32.0905 64.6263 32.0282 64.2759 32.1084C63.9255 32.1886 63.6213 32.4047 63.4302 32.7092C63.2392 33.0137 63.1769 33.3817 63.2571 33.7321C63.3373 34.0825 63.5534 34.3867 63.8579 34.5777L73.232 40.3949L37.5098 58.2605L18.0954 40.8721L27.3613 36.4688C27.6849 36.3147 27.9341 36.0384 28.054 35.7007C28.1739 35.3629 28.1547 34.9914 28.0007 34.6678C27.8466 34.3442 27.5704 34.095 27.2326 33.9751C26.8949 33.8552 26.5233 33.8744 26.1997 34.0285L15.1058 39.3053C15.0087 39.3542 14.918 39.4146 14.8356 39.4854L14.7726 39.5394C14.7019 39.6044 14.6385 39.6769 14.5835 39.7555V39.8096C14.5228 39.9052 14.4744 40.008 14.4394 40.1157V40.1878C14.4291 40.2835 14.4291 40.3801 14.4394 40.4759C14.4394 40.4759 14.4394 40.4759 14.4394 40.5209V67.7156C14.4386 67.9125 14.481 68.1073 14.5634 68.2862C14.6458 68.465 14.7664 68.6237 14.9167 68.7511L36.5283 87.9314C36.6368 88.0187 36.7584 88.0886 36.8885 88.1385H36.9425C37.0787 88.1853 37.2217 88.2096 37.3657 88.2106C37.4615 88.2208 37.5581 88.2208 37.6539 88.2106H37.7169L37.924 88.1385L76.6448 68.9582C76.8696 68.8398 77.0565 68.6604 77.1839 68.4406C77.3113 68.2208 77.3742 67.9695 77.3652 67.7156V40.5209ZM17.0328 43.5466L35.943 60.4847V83.9873L17.0328 67.0852V43.5466ZM74.6638 66.8601L38.6444 84.7617V60.7188L74.6638 42.7091V66.8601Z" fill="#FFFFFA"/>
</svg>
