<svg width="138" height="140" viewBox="0 0 138 140" fill="none" xmlns="http://www.w3.org/2000/svg">
<path d="M80.7645 118.882H56.5358C54.3264 118.882 52.5458 117.089 52.5458 114.892V112.088C52.572 109.677 52.4539 107.984 52.2002 107.039C50.8395 102.056 47.2389 97.8779 43.752 93.8266C42.6014 92.501 41.5164 91.2366 40.5189 89.9635C35.5008 83.5804 32.832 75.9329 32.832 67.8216C32.832 48.0204 48.9495 31.916 68.7508 31.916C88.5477 31.916 104.661 48.0204 104.661 67.8216C104.661 75.9373 102.005 83.5935 96.9739 89.9723C96.0945 91.101 95.0795 92.2823 94.0208 93.5291C90.4508 97.7291 86.4652 102.415 85.0914 107.363C84.8508 108.247 84.7327 109.835 84.7502 112.057V114.884C84.7502 117.089 82.9695 118.882 80.7645 118.882ZM60.5345 110.894H76.7745C76.8183 107.787 77.1202 106.256 77.3958 105.259C79.2464 98.5954 83.8314 93.1835 87.8783 88.4323C88.9414 87.181 89.8733 86.0873 90.7002 85.046C94.607 80.076 96.6764 74.1304 96.6764 67.826C96.6764 52.426 84.1552 39.896 68.7552 39.896C53.3552 39.896 40.8252 52.426 40.8252 67.826C40.8252 74.1173 42.8902 80.0673 46.8014 85.0373C47.7245 86.2185 48.7352 87.3779 49.807 88.616C53.4952 92.8991 58.067 98.206 59.9133 104.948C60.1845 106.002 60.4995 107.608 60.5345 110.894Z" fill="#FFFFFA"/>
<path d="M80.7647 129.448H56.5359C54.3265 129.448 52.5459 127.659 52.5459 125.449C52.5459 123.244 54.3265 121.464 56.5359 121.464H80.7647C82.9697 121.464 84.7503 123.244 84.7503 125.449C84.7503 127.659 82.9697 129.448 80.7647 129.448Z" fill="#FFFFFA"/>
<path d="M74.7098 140H62.5954C60.3861 140 58.5967 138.211 58.5967 136.01C58.5967 133.805 60.3861 132.012 62.5954 132.012H74.7098C76.9061 132.012 78.6998 133.805 78.6998 136.01C78.6998 138.211 76.9061 140 74.7098 140Z" fill="#FFFFFA"/>
<path d="M132.591 71.8159H116.631C114.426 71.8159 112.632 70.0353 112.632 67.8259C112.632 65.6209 114.426 63.8359 116.631 63.8359H132.591C134.796 63.8359 136.576 65.6209 136.576 67.8259C136.576 70.0353 134.796 71.8159 132.591 71.8159Z" fill="#FFFFFA"/>
<path d="M20.8748 71.8159H4.91043C2.70543 71.8159 0.924805 70.0353 0.924805 67.8259C0.924805 65.6209 2.70543 63.8359 4.91043 63.8359H20.8704C23.0754 63.8359 24.8692 65.6209 24.8692 67.8259C24.8736 70.0353 23.0798 71.8159 20.8748 71.8159Z" fill="#FFFFFA"/>
<path d="M68.7507 23.9487C66.5413 23.9487 64.752 22.1681 64.752 19.9588V3.99C64.752 1.78938 66.5413 0 68.7507 0C70.9601 0 72.7407 1.78938 72.7407 3.99V19.9544C72.7407 22.1637 70.9601 23.9487 68.7507 23.9487Z" fill="#FFFFFA"/>
<path d="M113.874 116.956C112.859 116.956 111.84 116.567 111.057 115.784L99.7736 104.496C98.2161 102.943 98.2161 100.41 99.7736 98.8483C101.335 97.2908 103.86 97.2996 105.417 98.8571L116.7 110.14C118.262 111.702 118.262 114.235 116.7 115.793C115.922 116.576 114.907 116.956 113.874 116.956Z" fill="#FFFFFA"/>
<path d="M34.8882 37.9706C33.8732 37.9706 32.8495 37.5812 32.062 36.7981L20.7876 25.5193C19.2257 23.9575 19.2257 21.4243 20.7876 19.8625C22.3495 18.305 24.8739 18.305 26.4314 19.8625L37.7145 31.1456C39.2764 32.7031 39.2764 35.2406 37.7145 36.7981C36.9357 37.5812 35.9164 37.9706 34.8882 37.9706Z" fill="#FFFFFA"/>
<path d="M23.6095 116.957C22.5901 116.957 21.5707 116.576 20.7876 115.793C19.2257 114.236 19.2257 111.703 20.7876 110.141L32.0795 98.8488C33.6282 97.2913 36.1526 97.2913 37.7145 98.8488C39.2764 100.411 39.2764 102.944 37.7145 104.506L26.4314 115.793C25.6482 116.572 24.6332 116.957 23.6095 116.957Z" fill="#FFFFFA"/>
<path d="M102.604 37.9711C101.585 37.9711 100.565 37.5817 99.7778 36.7986C98.229 35.2411 98.229 32.7124 99.7778 31.1549L111.061 19.8717C112.61 18.3142 115.152 18.3055 116.705 19.863C118.267 21.4249 118.267 23.9492 116.705 25.5111L105.43 36.7899C104.652 37.573 103.632 37.9711 102.604 37.9711Z" fill="#FFFFFA"/>
</svg>
