<svg width="20" height="21" viewBox="0 0 20 21" fill="none" xmlns="http://www.w3.org/2000/svg">
<path fill-rule="evenodd" clip-rule="evenodd" d="M7.429 7.59009H11.143V9.44009C11.678 8.37609 13.05 7.42009 15.111 7.42009C19.062 7.42009 20 9.53809 20 13.4241V20.6211H16V14.3091C16 12.0961 15.465 10.8481 14.103 10.8481C12.214 10.8481 11.429 12.1931 11.429 14.3081V20.6211H7.429V7.59009ZM0.57 20.4511H4.57V7.42009H0.57V20.4511ZM5.143 3.17109C5.14315 3.50637 5.07666 3.83833 4.94739 4.14768C4.81812 4.45703 4.62865 4.73761 4.39 4.97309C3.9064 5.45372 3.25181 5.72275 2.57 5.72109C1.88939 5.72064 1.23631 5.45229 0.752 4.97409C0.514211 4.73781 0.325386 4.45692 0.196344 4.14753C0.0673015 3.83813 0.000579132 3.50632 0 3.17109C0 2.49409 0.27 1.84609 0.753 1.36809C1.23689 0.889252 1.89024 0.620795 2.571 0.621094C3.253 0.621094 3.907 0.890094 4.39 1.36809C4.872 1.84609 5.143 2.49409 5.143 3.17109Z" fill="#0a66c2"/>
</svg>
