<svg xmlns="http://www.w3.org/2000/svg" xmlns:xlink="http://www.w3.org/1999/xlink" width="300.754" viewBox="0 0 168.754 35.273"><defs><linearGradient id="mmlinear-gradient" x1="0.469" y1="1.019" x2="0.531" y2="-0.019" gradientUnits="objectBoundingBox"><stop offset="0" stop-color="#6bcbdc"></stop><stop offset="0.37" stop-color="#00aeef"></stop><stop offset="0.63" stop-color="#00aeef"></stop><stop offset="1" stop-color="#6bcbdc"></stop></linearGradient></defs><g transform="translate(17770 17041.527)"><g transform="translate(-17730.695 -17030.957)" style="isolation:isolate"><g transform="translate(0 0)" style="isolation:isolate"><path d="M126.434,245.646l-7.459-10.74v10.74h-1.451V233.688h2.362l7.143,10.253,7.171-10.253h2.329v11.958H135.08v-10.74l-7.477,10.74Z" transform="translate(-117.525 -233.579)"></path><path d="M178.715,242.411a17.851,17.851,0,0,1,3.227.215,2.767,2.767,0,0,1,1.731,1.094,4.846,4.846,0,0,1,.654,2.851q0,2.995-1.147,3.748t-4.483.753a8.717,8.717,0,0,1-4.2-.735q-1.237-.735-1.237-3.514a6.409,6.409,0,0,1,.574-3.021,2.246,2.246,0,0,1,1.792-1.2q1.219-.152,1.775-.171T178.715,242.411Zm0,7.567a9.307,9.307,0,0,0,3.326-.414q.959-.414.959-2.427a7.183,7.183,0,0,0-.332-2.445,1.479,1.479,0,0,0-1.274-1.007q-.941-.126-1.506-.144t-1.336-.018h-.376a5.035,5.035,0,0,0-2.823.556q-.743.556-.745,2.654a3.33,3.33,0,0,0,.771,2.627,4.749,4.749,0,0,0,2.851.618Z" transform="translate(-151.41 -238.879)"></path><path d="M209.456,238.308a1.863,1.863,0,0,1,1.255-1.116,8.233,8.233,0,0,1,2.187-.247h.95a7.88,7.88,0,0,1,4.117.773q1.158.773,1.156,3.576t-1.13,3.568a7.856,7.856,0,0,1-4.124.764h-1.094a6.471,6.471,0,0,1-2.044-.26,2.407,2.407,0,0,1-1.273-1.192v1.309H208.2V233.411h1.255Zm4.456,6.2h.306q.934,0,1.518-.054a3.5,3.5,0,0,0,1.123-.3,1.313,1.313,0,0,0,.728-.872,5.677,5.677,0,0,0,.189-1.6v-.362a6.563,6.563,0,0,0-.3-2.257,1.285,1.285,0,0,0-1.087-.872,13.4,13.4,0,0,0-1.4-.126q-.611-.018-1.132-.018-.826,0-1.366.027t-1.464.144a1.439,1.439,0,0,0-1.249.89,7.912,7.912,0,0,0-.118,4.038,1.463,1.463,0,0,0,.835.971,4.238,4.238,0,0,0,1.446.333q.819.053,1.969.053Z" transform="translate(-172.65 -233.411)"></path><path d="M243.983,234.989h-1.255v-1.578h1.255Zm0,10.489h-1.255v-8.427h1.255Z" transform="translate(-193.638 -233.411)"></path><path d="M262.8,245.646l-7.459-10.74v10.74H253.89V233.688h2.362l7.143,10.253,7.171-10.253H272.9v11.958h-1.453v-10.74l-7.476,10.74Z" transform="translate(-200.424 -233.579)"></path><path d="M318.363,249.941a1.872,1.872,0,0,1-.78.779,3.181,3.181,0,0,1-1.157.278l-2.313.054h-1.094a4.744,4.744,0,0,1-2.949-.637,2.359,2.359,0,0,1-.726-1.874,2.864,2.864,0,0,1,.5-1.918,2.1,2.1,0,0,1,1.408-.645q.905-.089,1.6-.107t1.309-.018l2.367.072a1.924,1.924,0,0,1,1.829.932v-.9a5.5,5.5,0,0,0-.125-1.282,1.3,1.3,0,0,0-.556-.8,3.053,3.053,0,0,0-1.461-.341q-1.032-.053-1.533-.054-.61,0-1.183.009a10.924,10.924,0,0,0-1.246.1,1.311,1.311,0,0,0-.923.431,1.682,1.682,0,0,0-.251,1H309.72a2.486,2.486,0,0,1,.583-1.882,2.967,2.967,0,0,1,1.757-.654q1.174-.118,2.161-.118,1.219,0,2.026.045a8.55,8.55,0,0,1,1.739.3,1.854,1.854,0,0,1,1.282,1,4.653,4.653,0,0,1,.35,1.963v5.254h-1.255Zm-4.232,0h.359q.914,0,1.614-.045a7.333,7.333,0,0,0,1.479-.26,1.1,1.1,0,0,0,.78-1.219q0-.861-.529-1.1a3.636,3.636,0,0,0-1.148-.305q-.619-.062-1.39-.063l-1.112.018q-1.291,0-1.82.054a3.812,3.812,0,0,0-.959.215.941.941,0,0,0-.574.492,2.056,2.056,0,0,0-.143.816,1.3,1.3,0,0,0,.385,1,2.448,2.448,0,0,0,1.587.359Z" transform="translate(-234.132 -238.86)"></path><path d="M347.749,240.823h-5.828v4.052a2.586,2.586,0,0,0,.484,1.865,2.9,2.9,0,0,0,1.9.449,4.141,4.141,0,0,0,1.9-.332q.609-.333.61-1.548V244.3h1.147a6.116,6.116,0,0,1-.565,3.215q-.565.787-2.95.784a6.131,6.131,0,0,1-2.877-.51q-.906-.51-.905-2.322v-4.646h-2.044v-1.076h2.044v-1.9h1.255v1.9h5.828Z" transform="translate(-251.934 -236.108)"></path><path d="M372.028,240.823H366.2v4.052a2.584,2.584,0,0,0,.485,1.865,2.9,2.9,0,0,0,1.9.449,4.139,4.139,0,0,0,1.9-.332q.609-.333.61-1.548V244.3h1.148a6.113,6.113,0,0,1-.565,3.215q-.565.787-2.949.784a6.13,6.13,0,0,1-2.878-.51q-.905-.51-.905-2.322v-4.646H362.9v-1.076h2.044v-1.9H366.2v1.9h5.829Z" transform="translate(-266.693 -236.108)"></path><path d="M393.836,249.743q.287.054.915.107t1.488.054h.682q.932,0,1.47-.054a3.2,3.2,0,0,0,.968-.242,1.373,1.373,0,0,0,.627-.493,1.6,1.6,0,0,0,.235-.753h1.326a2.054,2.054,0,0,1-1.336,2.161,10.124,10.124,0,0,1-3.45.493,20.538,20.538,0,0,1-3.424-.207,2.914,2.914,0,0,1-1.82-1.112,4.932,4.932,0,0,1-.706-3q0-2.6.993-3.487a5.5,5.5,0,0,1,3.607-.888h.859a15.406,15.406,0,0,1,3.052.225,2.571,2.571,0,0,1,1.629,1.107,5.1,5.1,0,0,1,.6,2.808v.431h-9.49a4.434,4.434,0,0,0,.341,1.927A1.914,1.914,0,0,0,393.836,249.743Zm2.923-6.312h-.986a12.975,12.975,0,0,0-1.847.118,2.382,2.382,0,0,0-1.21.461,1.6,1.6,0,0,0-.529.786,3.752,3.752,0,0,0-.126,1.019h8.158a4.142,4.142,0,0,0-.108-.994,1.451,1.451,0,0,0-.431-.732,2.388,2.388,0,0,0-1.013-.478,7.88,7.88,0,0,0-1.909-.179Z" transform="translate(-283.661 -238.824)"></path><path d="M426.215,243.987a2.128,2.128,0,0,1,.975-1.183,4.856,4.856,0,0,1,2.37-.431,6.781,6.781,0,0,1,3.354.6q.957.6.957,2.815v.392h-1.255a3.341,3.341,0,0,0-.492-2.132,2.844,2.844,0,0,0-2.1-.558h-.429a4.949,4.949,0,0,0-2.6.51q-.778.51-.778,2.214v4.716h-1.255V242.5h1.255Z" transform="translate(-304.421 -238.859)"></path></g></g><path d="M10.715,4.244V4.26a4.185,4.185,0,0,0,2.1,3.576,9.5,9.5,0,0,1,.3,2.394,8.825,8.825,0,0,1-1.166,4.5c-.678,1.136-1.235,1.343-1.235,2.9s.993,1.83,1.67,3.282a9.1,9.1,0,0,1,.813,3.829,9.456,9.456,0,0,1-.38,2.683,4.211,4.211,0,0,0-2.1,3.368V31a4.447,4.447,0,0,0,4.613,4.26A4.449,4.449,0,0,0,19.949,31v-.209a4.209,4.209,0,0,0-2.1-3.368,9.456,9.456,0,0,1-.38-2.683,9.1,9.1,0,0,1,.811-3.829c.678-1.452,1.67-1.733,1.67-3.282s-.557-1.769-1.235-2.9a8.8,8.8,0,0,1-1.167-4.5,9.566,9.566,0,0,1,.3-2.394,4.189,4.189,0,0,0,2.1-3.573V4.244A4.47,4.47,0,0,0,15.325,0a4.444,4.444,0,0,0-4.61,4.245Zm15.92,2.074A4.305,4.305,0,0,0,22.48,10.76a4.857,4.857,0,0,0,.052.7,4.48,4.48,0,0,0,1.81,3,13.3,13.3,0,0,1,.256,2.651,11.986,11.986,0,0,1-.523,3.677,4.462,4.462,0,0,0-1.321,1.918,4.7,4.7,0,0,0-.269,1.58,4.306,4.306,0,0,0,4.155,4.444,4.306,4.306,0,0,0,4.155-4.444,4.7,4.7,0,0,0-.269-1.58A4.454,4.454,0,0,0,29.2,20.794a11.986,11.986,0,0,1-.533-3.677,13.3,13.3,0,0,1,.26-2.645,4.478,4.478,0,0,0,1.81-3,4.667,4.667,0,0,0,.053-.7A4.306,4.306,0,0,0,26.64,6.324Zm-22.484,0A4.305,4.305,0,0,0,0,10.76a4.857,4.857,0,0,0,.052.7,4.48,4.48,0,0,0,1.809,3,13.305,13.305,0,0,1,.256,2.651,11.986,11.986,0,0,1-.526,3.676,4.462,4.462,0,0,0-1.322,1.92A4.732,4.732,0,0,0,0,24.292a4.306,4.306,0,0,0,4.155,4.444,4.306,4.306,0,0,0,4.155-4.444,4.732,4.732,0,0,0-.269-1.58,4.453,4.453,0,0,0-1.323-1.917,12.028,12.028,0,0,1-.526-3.677,13.3,13.3,0,0,1,.257-2.645,4.484,4.484,0,0,0,1.81-3,4.858,4.858,0,0,0,.052-.7,4.305,4.305,0,0,0-4.155-4.45Z" transform="translate(-17769.996 -17041.521)" fill-rule="evenodd" fill="url(#mmlinear-gradient)"></path></g></svg>