<svg width="239" height="177" viewBox="0 0 239 177" fill="none" xmlns="http://www.w3.org/2000/svg">
<path d="M105.947 94.6671C96.5947 85.8599 84.8995 81.3939 71.1829 81.3939C66.8481 81.3939 63.3989 81.4824 60.9138 81.6577L60.5687 81.683C59.8584 81.7351 59.2211 81.5013 58.7555 81.0558C58.4889 80.8015 58.0708 80.2628 58.2333 79.4998C60.3934 69.4019 65.276 60.0765 72.7551 51.7843C79.2884 44.5347 88.4163 37.2978 99.8815 30.2773C108.206 25.181 110.412 15.3974 104.905 8.00096L104.539 7.50965V7.51123C99.0561 0.147924 87.8685 -2.17433 79.0674 2.21585C56.5991 13.4354 38.2994 27.7939 24.6759 44.8965C8.3026 65.4461 0 88.3117 0 112.861C0 131.736 5.87774 147.281 17.4671 159.063C29.1605 170.965 44.4546 177 62.9223 177C78.5561 177 92.1102 172.13 103.214 162.523C114.316 152.916 119.943 141.19 119.943 127.665C119.945 114.523 115.236 103.421 105.947 94.6671ZM99.3428 159.172C89.3037 167.858 77.0516 172.261 62.9242 172.261C45.9026 172.261 32.3979 166.94 21.643 155.994C10.9174 145.092 5.47968 130.58 5.47968 112.861C5.47968 89.2912 13.4554 67.3292 29.1879 47.5868C42.3438 31.0688 60.0465 17.1842 81.8045 6.32167C83.9482 5.25058 86.2872 4.74032 88.5989 4.74032C93.0433 4.74032 97.3689 6.63288 99.9344 10.0784L100.3 10.5681C104.213 15.824 102.639 22.7813 96.7171 26.4069C84.8119 33.6959 75.2968 41.252 68.4349 48.868C60.4098 57.7669 55.1639 67.7842 52.8467 78.6372C52.414 80.6562 53.0859 82.6956 54.6909 84.2328C56.3124 85.7841 58.5985 86.5661 61.0179 86.4065L61.3757 86.3797C63.6965 86.2169 66.996 86.1332 71.1829 86.1332C83.4716 86.1332 93.5235 89.9736 101.912 97.8725C110.244 105.726 114.467 115.749 114.467 127.665C114.467 139.886 109.378 150.487 99.3428 159.172Z" fill="url(#paint0_linear_586_697)"/>
<path d="M224.897 94.5636C215.637 85.7451 204.058 81.2734 190.478 81.2734C186.193 81.2734 182.684 81.3619 179.96 81.5407C179.273 81.5802 178.615 81.3588 178.15 80.9096C177.895 80.6628 177.49 80.1376 177.644 79.3958C179.757 69.247 184.51 59.8069 191.769 51.3333C198.107 43.9384 206.969 36.697 218.109 29.8099C226.097 24.8716 228.42 15.2701 223.402 7.9496C218.152 0.29533 206.696 -2.27983 197.861 2.20454C180.414 11.0657 165.412 21.9816 153.271 34.6486C152.309 35.653 152.459 37.1494 153.607 37.9909C154.757 38.8324 156.466 38.6996 157.427 37.6967C169.162 25.4537 183.68 14.8921 200.584 6.3077C206.873 3.11249 215.017 4.94895 218.752 10.3903C222.321 15.5944 220.663 22.4198 214.981 25.9329C203.378 33.1048 194.108 40.6926 187.43 48.4845C179.662 57.5513 174.574 67.6637 172.309 78.5432C171.893 80.5457 172.557 82.5673 174.13 84.0889C175.731 85.6391 178.024 86.4363 180.459 86.2623C182.959 86.0978 186.331 86.0156 190.48 86.0156C202.646 86.0156 212.598 89.8609 220.903 97.7698C229.153 105.633 233.334 115.669 233.334 127.601C233.334 139.825 228.202 150.434 218.08 159.132C207.94 167.838 195.509 172.253 181.131 172.253C164.295 172.253 151.12 167.014 140.86 156.237C130.617 145.491 125.423 130.867 125.423 112.778C125.423 92.8948 131.051 74.0889 142.153 56.8838C142.889 55.7433 142.428 54.296 141.124 53.6522C139.821 53.0068 138.169 53.4118 137.429 54.5522C125.866 72.4786 120 92.0691 120 112.779C120 132.011 125.617 147.655 136.693 159.278C147.891 171.038 162.844 177 181.131 177C196.979 177 210.687 172.128 221.878 162.52C233.077 152.895 238.756 141.149 238.756 127.602C238.756 114.445 234.093 103.328 224.897 94.5636Z" fill="url(#paint1_linear_586_697)"/>
<defs>
<linearGradient id="paint0_linear_586_697" x1="19.8046" y1="-1.55263" x2="123.567" y2="64.6328" gradientUnits="userSpaceOnUse">
<stop stop-color="#BDF9B3"/>
<stop offset="1" stop-color="#8BC540" stop-opacity="0"/>
</linearGradient>
<linearGradient id="paint1_linear_586_697" x1="139.608" y1="-1.55263" x2="242.932" y2="63.7006" gradientUnits="userSpaceOnUse">
<stop stop-color="#BDF9B3"/>
<stop offset="1" stop-color="#8BC540" stop-opacity="0"/>
</linearGradient>
</defs>
</svg>
