<svg width="65" height="65" viewBox="0 0 65 65" fill="none" xmlns="http://www.w3.org/2000/svg">
<path fill-rule="evenodd" clip-rule="evenodd" d="M4.0625 32.5C4.0625 40.0421 7.05858 47.2753 12.3917 52.6083C17.7247 57.9414 24.9579 60.9375 32.5 60.9375C40.0421 60.9375 47.2753 57.9414 52.6083 52.6083C57.9414 47.2753 60.9375 40.0421 60.9375 32.5C60.9375 24.9579 57.9414 17.7247 52.6083 12.3917C47.2753 7.05858 40.0421 4.0625 32.5 4.0625C24.9579 4.0625 17.7247 7.05858 12.3917 12.3917C7.05858 17.7247 4.0625 24.9579 4.0625 32.5ZM65 32.5C65 41.1195 61.5759 49.386 55.481 55.481C49.386 61.5759 41.1195 65 32.5 65C23.8805 65 15.614 61.5759 9.51903 55.481C3.4241 49.386 0 41.1195 0 32.5C0 23.8805 3.4241 15.614 9.51903 9.51903C15.614 3.4241 23.8805 0 32.5 0C41.1195 0 49.386 3.4241 55.481 9.51903C61.5759 15.614 65 23.8805 65 32.5ZM18.2812 30.4688C17.7425 30.4688 17.2259 30.6828 16.8449 31.0637C16.464 31.4446 16.25 31.9613 16.25 32.5C16.25 33.0387 16.464 33.5554 16.8449 33.9363C17.2259 34.3172 17.7425 34.5312 18.2812 34.5312H41.8153L33.0931 43.2494C32.9043 43.4382 32.7545 43.6624 32.6522 43.9092C32.55 44.1559 32.4974 44.4204 32.4974 44.6875C32.4974 44.9546 32.55 45.2191 32.6522 45.4658C32.7545 45.7126 32.9043 45.9368 33.0931 46.1256C33.282 46.3145 33.5062 46.4643 33.7529 46.5665C33.9997 46.6687 34.2642 46.7213 34.5312 46.7213C34.7983 46.7213 35.0628 46.6687 35.3096 46.5665C35.5563 46.4643 35.7805 46.3145 35.9694 46.1256L48.1569 33.9381C48.346 33.7494 48.4961 33.5253 48.5985 33.2785C48.7009 33.0317 48.7536 32.7672 48.7536 32.5C48.7536 32.2328 48.7009 31.9683 48.5985 31.7215C48.4961 31.4747 48.346 31.2506 48.1569 31.0619L35.9694 18.8744C35.7805 18.6855 35.5563 18.5357 35.3096 18.4335C35.0628 18.3313 34.7983 18.2787 34.5312 18.2787C34.2642 18.2787 33.9997 18.3313 33.7529 18.4335C33.5062 18.5357 33.282 18.6855 33.0931 18.8744C32.9043 19.0632 32.7545 19.2874 32.6522 19.5342C32.55 19.7809 32.4974 20.0454 32.4974 20.3125C32.4974 20.5796 32.55 20.8441 32.6522 21.0908C32.7545 21.3376 32.9043 21.5618 33.0931 21.7506L41.8153 30.4688H18.2812Z" fill="#8BC540"/>
</svg>
