<svg width="494" height="456" viewBox="0 0 494 456" fill="none" xmlns="http://www.w3.org/2000/svg">
<path d="M263.303 88.4671L263.556 88.3898L263.736 88.1963L266.024 85.7416L268.31 83.2893C268.311 83.2887 268.311 83.2881 268.312 83.2875C310.513 38.3071 352.2 13.1414 388.49 4.85984C424.731 -3.4106 455.559 5.15104 476.321 27.598C494.61 52.2888 498.223 85.3298 485.024 121.471C471.812 157.647 441.759 196.886 392.811 233.739L392.809 233.74C391.051 235.071 389.267 236.4 387.456 237.729L387.244 237.885L387.137 238.125C382.933 247.615 376.133 262.296 369.031 274.86C365.478 281.145 361.867 286.87 358.483 291.144C356.791 293.282 355.174 295.032 353.668 296.305C352.149 297.588 350.817 298.321 349.695 298.54L349.695 298.54C348.354 298.801 347.354 298.729 346.606 298.461C345.875 298.198 345.309 297.721 344.865 297.02C343.934 295.551 343.567 293.136 343.647 289.974C343.76 285.506 344.733 280.047 345.684 274.706C346.073 272.523 346.459 270.359 346.781 268.291L347.133 266.028L345.236 267.292C230.95 343.403 72.0169 423.305 2.35479 453.219C40.9891 385.905 140.297 233.921 229.451 127.356L230.855 125.678L228.661 125.707C226.694 125.733 224.579 125.812 222.444 125.891C220.883 125.949 219.311 126.008 217.778 126.047C214.102 126.139 210.575 126.122 207.612 125.745C204.606 125.363 202.388 124.633 201.144 123.469C200.548 122.912 200.168 122.25 200.022 121.43C199.873 120.593 199.957 119.527 200.407 118.169C200.786 117.026 201.688 115.755 203.129 114.382C204.56 113.018 206.46 111.611 208.739 110.184C213.295 107.329 219.263 104.452 225.756 101.717C238.735 96.2502 253.679 91.4024 263.303 88.4671Z" stroke="url(#paint0_linear_316_189)" stroke-width="2"/>
<defs>
<linearGradient id="paint0_linear_316_189" x1="383.902" y1="18.1065" x2="85.3289" y2="460.057" gradientUnits="userSpaceOnUse">
<stop offset="0.155704" stop-color="#8BC540"/>
<stop offset="0.476836" stop-color="#8BC540" stop-opacity="0.216491"/>
<stop offset="1" stop-color="#8BC540" stop-opacity="0.46"/>
</linearGradient>
</defs>
</svg>
